<svg width="554" height="700" viewBox="0 0 554 700" fill="none" xmlns="http://www.w3.org/2000/svg">
<path d="M553.102 59.3573C552.938 45.3954 549.729 32.1325 543.374 19.8772C536.964 7.52207 526.39 -0.17606 512.161 0.0690459C497.523 0.332307 483.239 3.95442 469.647 9.45568C452.354 16.4457 437.08 26.8037 422.805 38.7503C414.641 45.577 405.649 50.9784 394.538 51.2326C388.119 51.3778 381.646 51.7046 375.3 51.0147C365.135 49.9163 354.925 48.4093 347.142 40.6385C345.269 38.7685 343.36 36.9347 340.696 34.3294C339.832 33.1311 339.45 37.3886 339.705 40.0394C340.168 44.9688 340.896 49.8618 341.478 54.773C342.205 60.8461 344.123 66.4563 348.351 70.9953C353.997 77.0503 359.48 83.3323 365.662 88.7882C373.645 95.8145 383.737 98.9283 394.066 98.3654C407.44 97.6301 419.878 92.8279 431.206 85.4838C434.616 83.2688 438.089 81.0265 441.807 79.4197C449.217 76.2061 456.809 73.6824 465.128 75.9882C470.72 77.5315 474.329 85.8741 470.347 89.4145C462.864 96.0869 455.309 102.886 446.917 108.27C434.297 116.349 420.896 123.239 407.858 130.674C393.02 139.144 377.7 146.452 361.335 151.662C342.596 157.617 324.003 164.063 305.464 170.608C292.99 175.011 280.571 179.632 268.378 184.779C257.241 189.472 246.421 194.919 235.565 200.239C232.692 201.637 230.619 201.618 228.083 199.494C222.1 194.492 216.054 189.545 209.672 185.078C205.889 182.437 201.316 180.957 197.307 178.597C172.585 164.126 145.537 155.992 117.87 149.738C109.815 147.904 101.459 146.824 93.2036 146.542C74.0196 145.889 55.2174 147.423 36.4244 152.879C14.3218 159.297 -7.27161 166.45 -27.483 177.498C-30.547 179.178 -33.5656 180.993 -36.7659 182.391C-45.3487 186.168 -53.3587 190.661 -59.4139 198.087C-62.7053 202.1 -65.2328 202.327 -69.8879 199.921C-75.0521 197.261 -80.2254 194.538 -85.5988 192.359C-95.6818 188.256 -106.165 185.051 -116.039 180.503C-137.014 170.853 -158.453 162.52 -180.601 156.074C-199.839 150.482 -218.632 143.873 -236.071 133.869C-249.099 126.407 -261.846 118.41 -275.175 111.529C-285.622 106.145 -294.123 98.5379 -302.778 90.976C-305.151 88.8971 -306.724 86.5187 -305.56 83.3232C-304.306 79.9008 -302.869 76.8506 -298.523 75.8157C-289.95 73.7459 -282.13 76.1244 -274.866 79.8282C-263.483 85.629 -252.991 92.9822 -240.317 96.3683C-228.906 99.4276 -218.014 99.0191 -207.649 93.7992C-195.23 87.5536 -186.129 77.4861 -178.691 65.9117C-177.609 64.2413 -176.828 62.2169 -176.482 60.2651C-175.309 53.5384 -174.236 46.7753 -173.454 39.9849C-173.2 37.779 -173.845 33.6848 -174.673 34.7651C-176.218 35.9997 -177.273 36.5807 -177.973 37.4431C-182.91 43.6615 -189.32 47.3199 -197.048 48.8814C-219.023 53.3386 -240.217 54.1829 -258.346 37.4431C-268.765 27.8114 -280.903 20.4764 -293.423 13.913C-308.479 6.04236 -324.808 2.33854 -341.574 0.286918C-354.102 -1.24726 -364.149 3.44606 -372.314 12.5694C-380.978 22.2466 -384.015 34.5745 -385.715 46.6754C-387.479 59.2666 -387.07 72.2481 -386.57 85.0299C-386.088 97.2125 -385.224 109.631 -379.96 120.897C-375.732 129.939 -371.614 139.461 -365.304 146.969C-356.166 157.844 -345.047 167.022 -334.873 177.044C-330.218 181.638 -326.363 187.203 -321.217 191.124C-306.606 202.254 -292.041 213.592 -276.494 223.297C-256.137 235.997 -234.934 247.362 -213.95 259.055C-181.264 277.256 -150.724 298.753 -119.594 319.342C-116.848 321.166 -115.921 323.418 -116.011 326.677C-116.239 335.264 -116.311 343.861 -116.093 352.449C-115.975 357.079 -115.648 361.818 -114.538 366.284C-111.484 378.703 -107.947 391.012 -104.719 403.395C-104.337 404.856 -104.501 406.572 -104.837 408.079C-105.919 412.881 -107.801 417.593 -108.274 422.44C-109.129 431.228 -110.402 440.233 -109.356 448.894C-107.21 466.577 -103.019 483.744 -92.7723 499.04C-89.4902 503.942 -86.6171 508.953 -81.762 512.267C-76.0886 516.125 -73.9792 522.226 -70.6788 527.663C-68.7786 530.804 -66.142 533.5 -63.8326 536.387C-63.4326 536.115 -63.0325 535.843 -62.6324 535.561C-62.7234 534.635 -62.8052 533.709 -62.9416 532.302C-56.9773 533.491 -54.8226 537.186 -54.1679 542.242C-52.5496 554.861 -49.9037 566.853 -41.0845 577.084C-33.5746 585.79 -28.9741 596.456 -25.1009 607.368C-22.0915 615.856 -18.2637 624.071 -14.7633 632.387C-11.4448 640.294 -8.1626 648.21 -4.64398 656.026C-3.99847 657.478 -2.54382 659.058 -1.09814 659.575C8.83026 663.161 17.0948 669.361 24.9139 676.125C37.9154 687.372 52.2534 695.506 69.4827 698.629C82.7206 701.026 95.4767 700.363 108.078 695.987C118.888 692.229 128.762 686.891 137.809 679.719C146.319 672.965 155.465 666.947 164.557 660.955C167.13 659.258 170.549 658.958 171.976 655.536C174.04 650.57 176.504 645.768 178.495 640.775C184.369 626.078 189.551 611.081 196.052 596.683C199.916 588.141 205.016 579.898 210.954 572.645C216 566.49 218.009 559.799 219.318 552.473C220.027 548.461 220.6 544.421 221.355 540.409C222.309 535.262 225.255 532.838 231.092 532.384C230.574 533.691 230.101 534.907 229.256 537.077C232.683 534.036 235.275 531.776 237.82 529.452C238.02 529.27 237.775 528.662 237.948 528.353C240.357 523.796 241.821 518.104 245.476 514.954C251.522 509.743 256.613 504.378 260.596 497.325C265.224 489.136 269.333 480.921 271.77 471.834C276.788 453.151 279.371 434.305 273.524 415.459C271.288 408.242 271.961 401.969 274.388 395.215C281.616 375.117 284.817 354.392 283.462 333.013C283.307 330.544 283.607 328.038 283.407 325.578C283.116 322.12 284.507 319.841 287.444 318.044C291.79 315.384 295.954 312.415 300.2 309.574C334.941 286.262 369.899 263.303 407.167 244.103C415.45 239.828 423.696 235.407 431.552 230.414C442.253 223.633 452.8 216.552 462.992 209.017C474.102 200.81 485.212 192.486 495.432 183.208C506.615 173.05 516.371 161.312 527.49 151.054C539.928 139.607 545.728 124.909 549.574 109.304C553.611 92.964 553.293 76.1244 553.102 59.3573ZM377.154 65.6847C378.4 63.1156 379.391 60.4376 380.491 57.8141C380.837 57.9049 381.182 57.9866 381.537 58.0683V71.4129C376.027 71.6852 374.963 70.2146 377.154 65.6847ZM368.644 53.2297C368.908 53.5202 369.172 53.8016 369.435 54.083C369.054 55.6354 368.654 57.1696 368.163 59.1122C366.644 58.6493 365.344 58.2498 364.044 57.8413C363.908 57.3783 363.753 56.9154 363.617 56.4524C365.29 55.3812 366.972 54.31 368.644 53.2297ZM355.197 70.7048C350.651 67.1826 352.324 63.7692 353.706 59.7023C358.834 63.1429 354.934 66.6742 355.197 70.7048ZM361.625 78.5028C358.116 75.4889 357.707 72.0121 359.962 66.2475C365.535 67.2189 365.344 70.9045 361.625 78.5028ZM364.117 65.9661C363.117 64.3048 362.116 62.6436 361.107 60.9642C362.335 60.6192 364.344 59.666 364.635 60.0473C365.662 61.3545 366.09 63.1156 366.735 64.7134C365.862 65.131 364.999 65.5485 364.117 65.9661ZM370.181 85.1842C365.317 84.3944 365.299 80.9539 366.035 77.4588C366.644 74.5085 366.49 70.4234 372.027 71.3766C371.372 76.2061 370.79 80.5817 370.181 85.1842ZM369.663 64.5954C370.126 63.6785 371.636 63.279 372.672 62.6526C372.972 64.6135 373.272 66.5743 373.627 68.9165C369.045 68.7894 368.463 66.9829 369.663 64.5954ZM382.764 88.6248C375.536 88.7065 374.454 87.717 374.427 81.3805C374.418 79.9281 374.409 78.4574 374.572 77.0231C374.791 75.1349 374.3 72.357 377.582 73.0379C379.327 73.401 383.146 72.5295 380.728 77.0866C379.964 78.5119 382.182 81.3805 382.701 83.6682C383.037 85.1661 382.764 86.791 382.764 88.6248ZM416.995 59.5752C416.805 55.481 416.614 51.3869 416.405 46.9841C420.196 48.8632 420.841 55.8896 416.995 59.5752ZM404.258 53.493C404.421 55.8805 404.758 58.1046 404.649 60.3105C404.621 61.0095 403.503 62.1171 402.785 62.1897C402.139 62.2623 401.039 61.3363 400.703 60.601C399.112 57.1696 400.148 54.782 404.258 53.493ZM394.557 57.0334C395.275 57.2876 395.984 57.5508 396.702 57.805C396.302 59.6115 395.893 61.409 395.493 63.2155C394.584 62.4802 392.911 61.7267 392.92 61.0095C392.956 59.6842 393.966 58.3588 394.557 57.0334ZM387.783 66.4563C388.492 67.8543 389.52 69.1979 389.783 70.6776C389.929 71.5309 388.838 72.584 388.301 73.5553C387.31 72.4296 386.319 71.2949 384.928 69.7063C386.183 68.2719 386.983 67.3641 387.783 66.4563ZM392.538 90.0772C391.238 89.1422 389.21 88.4614 388.792 87.2268C387.747 84.1221 387.338 80.7723 386.919 77.4861C386.828 76.7871 387.792 75.9519 388.265 75.1803C388.992 75.725 390.174 76.1244 390.365 76.8143C391.502 80.8177 392.411 84.8756 393.402 88.9153C393.12 89.3056 392.829 89.696 392.538 90.0772ZM394.175 73.7732C393.638 72.8835 393.829 71.5491 393.82 71.4401C393.82 69.5519 393.529 68.5352 393.893 67.8725C394.347 67.0101 395.32 66.4109 396.075 65.6938C396.62 66.4019 397.439 67.0373 397.657 67.8362C398.111 69.4793 398.475 71.2313 398.411 72.9108C398.375 73.9275 397.466 74.9079 396.948 75.9065C395.984 75.2075 394.72 74.6991 394.175 73.7732ZM399.275 88.0075C397.975 85.3022 396.602 82.6333 395.466 79.8645C395.311 79.4742 396.239 78.1125 396.711 78.0852C397.52 78.0398 398.93 78.521 399.102 79.0929C399.939 81.7527 400.439 84.5306 401.048 87.2631C400.457 87.5082 399.857 87.7533 399.275 88.0075ZM402.476 71.9304C399.875 67.0373 400.394 65.6756 405.312 65.1582C405.74 67.237 406.358 69.0617 406.412 70.9045C406.44 71.7942 405.467 72.7383 404.949 73.6643C404.103 73.1014 402.894 72.7292 402.476 71.9304ZM408.804 85.039C407.103 84.6305 405.285 83.0781 404.385 81.5258C403.558 80.1187 403.73 78.0217 403.812 76.2515C403.839 75.725 405.058 75.2529 405.921 74.6174C406.54 75.0623 407.24 75.3437 407.567 75.8611C408.813 77.8038 410.04 79.7647 411.086 81.8163C412.286 84.1766 410.568 85.4656 408.804 85.039ZM410.877 69.334C410.004 63.9508 409.249 58.5403 408.685 53.1117C408.604 52.3582 409.704 51.4777 410.258 50.6516L411.549 51.1236C412.622 56.6975 413.759 62.2714 414.659 67.8816C414.777 68.6532 413.895 69.8878 413.131 70.3871C412.74 70.6504 410.958 69.8424 410.877 69.334ZM419.205 81.6347C417.314 79.7828 415.413 77.9218 413.004 75.5797C417.796 73.7459 419.487 75.3346 419.205 81.6347ZM419.332 67.4095C418.477 65.6121 417.614 63.8237 416.759 62.0263C417.45 61.6813 418.141 61.3454 418.841 61.0005C419.678 62.7344 420.541 64.4501 421.241 66.2475C421.278 66.3656 419.996 67.0101 419.332 67.4095ZM427.697 40.6204C427.16 45.7313 426.633 50.7605 426.06 56.2436C420.85 51.1055 422.023 42.2272 427.697 40.6204ZM426.56 65.3397C425.997 63.27 425.442 61.2183 424.878 59.1576C425.478 59.0033 426.069 58.8308 426.678 58.6765C427.224 60.7463 427.779 62.807 428.324 64.8677C427.742 65.0311 427.151 65.1854 426.56 65.3397ZM-187.747 59.8112C-186.074 63.4606 -185.028 66.5925 -188.338 69.5156C-189.247 66.3383 -192.229 63.0339 -187.747 59.8112ZM-202.894 85.6563C-203.249 85.3567 -203.594 85.0571 -203.949 84.7757C-204.522 81.0719 -205.131 77.3862 -205.604 73.6733C-205.713 72.9289 -205.485 71.5763 -205.094 71.4401C-204.249 71.1587 -202.494 71.2313 -202.349 71.6035C-201.248 74.6356 -199.957 77.7312 -199.757 80.8722C-199.648 82.4063 -201.776 84.0676 -202.894 85.6563ZM-195.284 78.3939C-199.512 71.7216 -199.212 68.6623 -194.075 66.0841C-191.393 71.4765 -191.775 75.3618 -195.284 78.3939ZM-194.866 61.0095C-195.939 62.6345 -196.993 64.2776 -198.066 65.9026C-200.357 63.1519 -201.785 60.9914 -198.484 60.0382C-197.457 59.7386 -196.084 60.6555 -194.866 61.0095ZM-197.412 57.5962C-198.921 58.1591 -200.185 58.6311 -201.83 59.2393C-202.485 57.2331 -202.93 55.8896 -203.412 54.4371C-199.957 52.5035 -198.93 55.009 -197.412 57.5962ZM-206.313 62.6436C-205.358 63.2427 -203.94 63.6149 -203.531 64.4682C-202.385 66.883 -203.167 68.5987 -207.595 69.2342C-207.085 66.5562 -206.704 64.5953 -206.313 62.6436ZM540.755 34.3475C536.955 36.3174 534.154 34.7106 527.617 26.7402C531.354 21.8108 534.909 23.9169 540.755 34.3475ZM492.804 39.3495C494.032 36.1177 497.896 36.5171 501.705 39.9486C501.151 41.9367 500.787 43.4981 500.278 45.0051C499.05 48.6998 498.132 52.5489 496.396 55.9894C494.559 59.6297 492.45 59.5117 486.994 56.4706C488.922 50.7151 490.668 44.9597 492.804 39.3495ZM482.421 54.3735C481.857 55.1361 480.712 55.472 479.839 56.0167C479.63 55.127 479.112 54.1738 479.266 53.3477C479.985 49.6348 480.921 45.9673 481.721 42.2726C482.821 37.2343 484.449 36.272 490.904 37.4976C489.631 40.7929 488.604 44.061 487.113 47.1021C485.849 49.6802 484.13 52.0496 482.421 54.3735ZM497.641 34.1115C499.541 31.025 501.342 27.9112 503.351 24.9518C503.833 24.2528 505.115 23.5266 505.869 23.6627C510.188 24.4707 514.452 25.5237 518.998 26.5586C512.152 34.1024 504.033 36.9983 497.641 34.1115ZM522.744 28.6647C525.917 26.8128 531.281 31.2338 531.927 36.0451C524.071 37.08 516.634 38.0695 509.197 39.0499C509.115 38.6505 509.052 38.2329 508.979 37.8335C513.543 34.756 517.989 31.4516 522.744 28.6647ZM510.079 65.1673C510.015 70.4416 508.124 70.9953 504.478 68.8257C506.06 67.7999 507.633 66.7741 510.079 65.1673ZM504.242 51.9043C503.078 55.7897 501.914 59.6842 500.414 64.6952C497.35 60.2651 498.332 56.9971 502.987 51.5594C503.405 51.6683 503.824 51.7954 504.242 51.9043ZM503.596 91.0032C506.378 93.3181 508.77 96.0687 511.306 98.665C514.17 101.588 512.079 109.186 508.088 110.04C507.369 110.194 506.088 109.513 505.615 108.841C503.46 105.755 500.932 102.741 499.614 99.2914C498.387 96.0687 496.714 94.2985 493.477 93.4089C491.313 92.8006 489.322 91.557 487.004 90.4858C491.34 83.759 498.468 86.7456 503.596 91.0032ZM505.26 86.1828C504.169 85.1025 502.869 84.0495 501.46 83.5229C498.114 82.2793 497.732 80.9448 500.36 78.3394C503.296 75.4526 505.824 74.0728 509.57 77.2864C512.588 79.8645 516.28 81.6438 519.535 83.9587C520.389 84.5669 520.798 85.8015 521.462 86.8455C520.026 89.8957 518.771 92.8279 517.171 95.5513C516.962 95.9144 514.543 95.5876 513.788 94.8886C510.815 92.1289 508.161 89.0424 505.26 86.1828ZM513.252 72.938C512.115 71.8486 512.279 69.3885 511.852 67.5639C513.516 67.5457 515.47 66.9647 516.807 67.6365C522.062 70.26 524.981 73.7187 524.935 77.7584C523.99 77.9854 522.399 78.9113 521.544 78.4665C518.607 76.9232 515.634 75.1984 513.252 72.938ZM524.19 66.2929C521.944 64.7134 520.307 63.3789 518.489 62.3622C517.062 61.5633 515.37 61.2456 513.861 60.5466C512.143 59.7568 509.342 59.0578 509.079 57.8504C508.479 55.1724 512.87 51.5049 515.325 51.9497C522.299 53.2297 525.608 58.0501 524.19 66.2929ZM522.317 47.0022V49.1991H510.179C509.979 45.9855 514.543 41.2195 518.607 41.1651C522.953 41.1106 527.372 41.4193 531.636 42.2363C533.154 42.5177 534.782 44.533 535.482 46.1398C536.436 48.3276 536.564 50.8785 537.037 53.266C537.364 53.2479 537.682 53.2297 538.019 53.2116C537.618 49.8164 537.209 46.4212 536.782 42.781C539.919 45.5588 540.892 50.5063 540.128 59.8022C533.063 56.8791 525.499 55.2995 522.317 47.0022ZM531.609 11.2622C526.335 8.95639 521.053 6.65058 515.78 4.34478C522.135 3.8818 527.208 6.77768 531.609 11.2622ZM528.081 21.0301C522.098 26.0412 519.844 26.1229 509.588 21.6565C514.643 15.6196 517.343 15.5289 528.081 21.0301ZM507.051 15.7558C504.678 20.8213 502.369 21.6293 493.75 20.2131C495.968 13.9856 499.26 12.9598 507.051 15.7558ZM499.541 23.5901C497.359 30.7889 492.777 34.8105 486.849 34.7197C489.631 23.227 492.413 20.785 499.541 23.5901ZM485.676 14.7118C486.604 14.3124 488.267 15.6287 489.595 16.1643C488.713 17.6622 488.131 20.0043 486.858 20.4854C484.34 21.4205 481.439 21.3297 478.694 21.6565C478.393 20.8939 478.084 20.1314 477.793 19.3598C480.403 17.7711 482.894 15.9101 485.676 14.7118ZM483.258 24.4525C486.803 24.8973 485.194 27.657 484.64 29.5453C483.321 34.1206 480.339 36.853 474.757 37.4522C475.175 33.8119 475.375 30.6618 475.948 27.5663C476.766 23.109 480.512 24.1075 483.258 24.4525ZM479.13 38.8411C477.784 44.9234 476.575 50.3429 475.375 55.7715C474.902 55.7262 474.42 55.6898 473.938 55.6535C473.866 54.546 473.693 53.4113 473.738 52.3038C473.847 49.1174 474.166 45.931 474.166 42.7446C474.175 39.64 475.775 38.7776 479.13 38.8411ZM433.979 53.8833C433.952 53.9015 433.925 53.9196 433.907 53.9287C436.225 55.2904 437.407 60.7644 435.534 62.1897C435.007 62.58 433.143 62.2805 432.843 61.7539C431.252 58.967 430.597 56.1165 433.907 53.9287C433.925 53.9106 433.943 53.8833 433.961 53.8652C433.125 52.7032 431.724 51.5957 431.588 50.352C431.234 47.211 431.424 43.9974 431.47 40.811C431.524 38.1149 433.043 37.0074 436.38 37.0891C435.207 42.79 438.853 48.7815 433.961 53.8561C433.97 53.8742 433.979 53.8743 433.979 53.8833ZM440.807 60.2651C439.216 53.1026 439.853 51.9951 446.153 50.5699C449.463 57.7505 448.345 59.8839 440.807 60.2651ZM439.744 49.7619C440.553 44.3968 441.016 39.2678 442.235 34.3294C442.598 32.886 445.126 31.9872 446.835 30.7072C450.154 40.4842 447.444 48.4547 439.744 49.7619ZM452.463 57.6325C451.899 55.3086 451.063 53.0028 450.881 50.6516C450.79 49.3897 451.863 48.0462 452.409 46.7299C452.981 46.857 453.536 46.9841 454.109 47.1021C454.345 50.0524 454.718 53.0118 454.709 55.9622C454.709 56.525 453.245 57.0788 452.463 57.6325ZM450.417 44.7872C452.172 39.1044 450.681 33.7211 453.009 28.9552C455.818 34.0933 454.582 43.0442 450.417 44.7872ZM454.045 25.787C453.481 25.3603 452.936 24.9336 452.372 24.4979C453.527 23.0273 454.691 21.5566 455.855 20.086C456.364 20.5036 456.873 20.9393 457.391 21.3569C456.273 22.8366 455.163 24.3073 454.045 25.787ZM462.555 53.9106C462.464 54.8547 461.146 55.6898 460.391 56.5704C459.664 55.8623 458.409 55.2269 458.291 54.428C457.909 51.868 457.573 49.19 457.973 46.6845C458.155 45.5225 460.055 44.6147 461.182 43.598C461.673 43.8885 462.164 44.188 462.664 44.4695C462.664 47.6195 462.828 50.7877 462.555 53.9106ZM462.483 38.3237C462.146 39.5855 460.31 40.4298 458.673 41.9004C458.673 37.1163 458.491 33.3852 458.8 29.6996C458.891 28.7373 460.528 27.9021 461.455 27.0125C462.137 27.9203 463.41 28.8463 463.401 29.754C463.392 32.6227 463.228 35.573 462.483 38.3237ZM459.937 22.6278C461.664 20.431 462.955 18.7969 464.237 17.1538C464.646 17.5079 465.065 17.8528 465.483 18.2159C465.174 20.7578 465.247 23.6446 459.937 22.6278ZM469.538 54.2283C469.52 54.8093 468.965 55.6717 468.474 55.8351C468.001 55.9985 466.738 55.4447 466.738 55.1815C466.656 50.8422 466.71 46.4939 466.81 42.1364C466.81 42.0002 467.556 41.8732 469.583 41.2014C469.583 46.0309 469.629 50.1341 469.538 54.2283ZM467.21 37.3432C465.801 32.196 467.419 26.8673 470.665 25.9595C472.793 32.3776 471.538 36.499 467.21 37.3432ZM468.911 21.6837C470.756 19.8137 472.602 17.9345 474.448 16.0554C474.793 16.4003 475.12 16.7271 475.466 17.063C474.111 19.3961 474.238 23.1453 468.911 21.6837ZM477.121 96.8676C480.866 96.1595 485.14 98.202 490.44 99.2914C486.194 103.113 482.994 106.236 479.512 108.978C478.639 109.668 476.621 109.658 475.484 109.159C472.493 107.834 469.72 106.073 465.81 103.903C470.174 101.034 473.384 97.5666 477.121 96.8676ZM458.855 111.274C457.437 111.801 456.027 112.327 454.6 112.854C454.409 112.527 454.227 112.2 454.027 111.864C455.973 110.839 458.718 108.442 459.737 109.032C463.764 111.356 470.02 110.721 471.311 116.957C472.32 117.638 474.038 118.165 474.22 119.018C475.32 124.165 478.193 127.833 482.439 130.783C485.322 132.789 484.094 134.868 481.967 136.811C479.712 138.862 477.248 142.112 474.548 138.39C471.184 133.742 468.456 128.513 466.274 123.203C465.792 122.023 468.692 119.445 470.038 117.511C464.337 121.305 458.937 120.97 453.254 115.94C455.327 114.443 457.2 113.09 459.064 111.728C458.991 111.565 458.919 111.42 458.855 111.274ZM458.755 158.589C463.274 154.83 467.838 151.127 472.647 147.214C475.029 152.443 477.021 156.419 478.621 160.559C479.057 161.675 478.839 163.863 478.039 164.535C473.929 167.957 469.529 171.053 464.346 174.929C462.119 169.6 460.11 164.889 458.2 160.141C458.046 159.742 458.382 158.897 458.755 158.589ZM455.336 155.121C452.172 149.166 449.254 143.075 446.235 136.938C447.654 135.195 448.326 133.897 449.39 133.143C451.981 131.3 454.654 129.476 457.509 128.105C458.573 127.587 460.619 127.851 461.573 128.586C466.947 132.735 468.447 139.144 470.547 145.117C470.783 145.807 469.902 147.296 469.129 147.877C465.756 150.382 462.292 152.797 458.718 154.994C457.846 155.539 455.582 155.584 455.336 155.121ZM456.818 125.726C448.217 134.714 444.017 134.922 434.707 126.997C439.771 119.662 450.381 118.927 456.818 125.726ZM439.053 137.991C439.834 138.608 440.898 139.08 441.362 139.888C444.517 145.589 447.554 151.354 450.618 157.109C450.754 157.363 451.045 157.799 450.981 157.863C448.59 160.114 446.362 162.619 443.662 164.408C442.635 165.089 439.453 164.644 439.062 163.836C436.116 157.745 433.416 151.517 431.188 145.135C430.806 144.019 433.016 141.994 434.016 140.378C427.569 144.609 423.76 139.779 419.487 136.402C423.105 128.659 432.497 132.081 439.053 137.991ZM419.441 172.551C415.35 166.387 411.84 159.842 407.503 152.47C412.34 150.627 416.295 148.839 420.432 147.713C421.541 147.405 423.796 148.766 424.524 149.974C426.669 153.551 428.351 157.427 430.152 161.212C430.761 162.529 431.233 163.927 431.661 165.307C432.288 167.304 436.607 168.72 432.288 171.498C423.924 176.881 422.596 177.317 419.441 172.551ZM425.251 199.34C423.305 201.201 421.751 203.307 419.696 204.578C411.668 209.516 411.613 209.416 408.831 200.429C408.531 199.458 408.204 198.496 407.894 197.524C404.903 188.138 405.112 187.92 413.841 183.68C416.986 182.146 419.105 183.108 420.278 185.75C422.096 189.799 423.369 194.102 425.251 199.34ZM434.852 172.878C435.652 172.714 437.152 173.114 437.434 173.685C439.916 178.715 442.189 183.844 444.499 188.9C443.599 190.253 443.244 191.351 442.507 191.769C439.498 193.503 436.425 196.244 433.288 196.353C428.588 196.535 430.47 191.033 428.651 188.446C428.088 187.647 427.997 186.54 427.66 185.587C425.196 178.388 427.397 174.412 434.852 172.878ZM419.414 145.78C416.777 147.023 414.532 148.031 412.331 149.12C405.94 152.316 405.803 152.289 402.121 145.816C408.485 139.598 412.44 139.516 419.414 145.78ZM393.293 149.683C396.011 148.549 400.457 152.007 401.321 155.52C403.212 157.418 405.558 159.052 406.913 161.276C409.84 166.078 412.195 171.234 414.923 176.173C416.241 178.542 416.041 179.949 413.45 181.338C404.212 186.313 403.203 186.077 398.293 176.736C397.011 174.303 395.657 171.906 394.375 169.464C393.102 167.04 391.874 164.598 390.438 161.775C393.102 160.096 395.62 158.507 398.148 156.918C396.32 157.282 394.42 157.418 392.711 158.062C388.992 159.46 386.519 158.843 383.319 154.849C386.71 153.069 389.883 151.109 393.293 149.683ZM377.445 184.261C375.827 181.338 373.927 178.542 372.463 175.546C371.827 174.239 371.363 171.489 371.854 171.207C375.854 168.938 380.082 167.059 384.31 165.198C384.655 165.052 385.655 165.788 385.983 166.323C389.71 172.56 393.365 178.824 397.011 185.096C397.302 185.587 397.439 186.177 397.757 186.967C397.511 187.448 397.311 188.138 396.884 188.646C396.52 189.064 395.911 189.254 395.402 189.536C383.846 195.845 383.855 195.836 377.445 184.261ZM380.5 226.256C377.827 227.609 375.354 229.352 371.79 231.539C369.399 224.44 367.244 218.186 365.19 211.886C364.262 209.062 365.317 207.092 368.163 206.085C369.263 205.704 370.317 205.195 371.39 204.741C377.718 202.054 378.209 202.236 380.028 208.754C381.155 212.793 382.046 216.915 383.055 220.991C383.664 223.469 382.828 225.067 380.5 226.256ZM387.61 197.361C390.501 195.436 393.72 193.893 396.993 192.713C398.084 192.323 400.621 193.121 400.985 194.011C402.885 198.677 404.312 203.543 406.003 208.608C404.858 210.152 404.185 211.622 403.048 212.458C400.957 214.01 398.421 214.99 396.366 216.579C393.029 219.166 390.92 218.558 389.629 214.627C388.219 210.351 386.556 206.13 385.546 201.755C385.237 200.466 386.41 198.151 387.61 197.361ZM382.782 162.202C375.236 169.264 369.463 169.909 363.489 164.263C367.844 162.256 371.618 159.86 375.718 158.952C377.655 158.516 380.228 160.931 382.782 162.202ZM372.709 155.902L373.336 157.372C369.581 159.578 365.944 162.048 361.462 162.538C361.244 162.029 361.025 161.512 360.807 161.004C364.771 159.306 368.744 157.599 372.709 155.902ZM361.807 172.641C360.307 173.459 358.825 174.257 357.352 175.056C357.452 175.256 357.652 175.683 357.67 175.683C362.58 173.685 365.117 176.318 367.108 180.321C369.181 184.479 371.645 188.446 373.536 192.668C375.382 196.834 374.391 198.75 370.281 200.484C360.916 204.433 360.916 204.433 357.889 194.574C356.398 189.744 355.034 184.888 353.361 180.113C352.952 178.951 351.661 178.025 350.633 177.153C348.824 175.646 346.915 174.266 344.769 172.623C355.497 167.122 357.48 165.679 361.807 172.641ZM273.497 240.545C274.061 240.418 274.634 240.327 275.197 240.164C283.726 237.631 283.862 237.576 287.617 245.946C291.117 253.744 294.245 261.715 297.609 269.576C298.891 272.599 298.545 274.769 295.245 276.23C292.727 277.338 290.181 278.6 288.026 280.288C284.371 283.166 281.853 282.167 280.307 278.336C276.107 267.942 272.124 257.448 268.06 246.99C268.451 246.863 268.851 246.745 269.233 246.618C268.833 243.305 270.27 241.289 273.497 240.545ZM290.845 238.793C289.363 235.325 290.335 233.355 293.809 232.157C295.991 231.403 298.055 230.278 300.164 229.324C300.628 228.943 301.1 228.562 301.564 228.19C301.882 229.161 302.146 230.151 302.5 231.104C306.383 241.253 310.41 251.339 314.011 261.578C314.402 262.695 312.829 265.219 311.502 266.127C304.492 270.929 304.01 270.711 300.791 262.931C297.464 254.888 294.254 246.8 290.845 238.793ZM344.242 181.002C349.997 186.957 351.188 194.91 353.743 202.245C354.752 205.132 353.488 207.283 350.379 208.254C347.651 209.108 344.987 210.188 342.296 211.168C342.141 210.932 341.978 210.687 341.823 210.451C342.25 209.825 342.678 209.199 343.087 208.599C337.341 207.583 331.158 192.468 333.85 185.814C332.913 184.733 331.895 183.726 331.058 182.564C326.176 175.819 326.603 174.539 334.486 171.97C336.35 171.362 337.541 170.653 338.432 173.785C339.205 176.536 342.069 178.769 344.242 181.002ZM343.323 168.811C347.024 167.549 350.724 166.287 354.425 165.025C354.561 165.415 354.716 165.806 354.852 166.187C351.224 167.685 347.587 169.174 343.951 170.672C343.751 170.054 343.532 169.437 343.323 168.811ZM333.522 209.135C332.849 213.529 329.167 213.529 326.621 214.591C325.621 214.999 323.021 214.019 322.666 213.102C320.393 207.165 318.484 201.101 316.666 195.019C316.457 194.311 317.348 192.804 318.12 192.386C319.884 191.415 321.848 190.652 323.821 190.298C324.812 190.117 326.676 190.743 326.976 191.469C329.349 197.379 331.449 203.407 333.522 209.135ZM317.593 190.652C312.683 190.934 312.929 185.505 313.384 183.326C313.875 180.957 317.584 179.25 320.057 177.108C324.03 179.586 324.73 183.208 324.776 186.086C324.839 190.216 320.284 190.507 317.593 190.652ZM317.148 215.199C316.338 218.939 311.165 223.469 307.792 222.725C306.919 222.534 305.846 221.336 305.619 220.401C304.01 213.928 302.373 207.456 301.2 200.901C300.555 197.243 304.301 197.751 306.31 196.816C308.147 195.963 310.383 195.073 311.392 197.942C313.402 203.661 315.238 209.435 317.148 215.199ZM307.856 227.064C309.201 226.102 310.465 224.885 311.965 224.177C318.293 221.227 318.666 221.29 320.975 227.799C324.003 236.287 326.64 244.92 329.567 253.436C330.658 256.613 328.113 257.139 326.385 258.192C324.221 259.5 321.803 260.053 320.366 257.303C318.502 253.717 316.857 249.977 315.338 246.219C312.874 240.164 310.574 234.045 307.856 227.064ZM325.512 223.061C324.358 220.228 325.439 218.858 328.103 217.795C336.204 214.555 336.804 214.673 339.632 222.924C341.696 228.952 343.387 235.107 345.287 241.189C346.733 245.792 344.76 248.588 340.578 250.276C339.523 250.694 338.496 251.211 337.059 251.865C333.077 241.907 329.331 232.474 325.512 223.061ZM343.042 216.479C342.66 215.48 343.242 214.119 343.387 212.921C344.123 213.329 344.887 214.128 345.578 214.064C347.415 213.919 349.27 213.492 351.061 212.993C355.161 211.84 357.525 212.775 358.898 216.724C360.18 220.419 361.125 224.223 362.098 228.017C362.562 229.833 362.744 231.721 363.062 233.573C363.817 238.775 358.962 238.983 356.298 240.781C353.47 242.687 352.415 239.401 351.688 237.749C348.588 230.759 345.778 223.623 343.042 216.479ZM355.17 155.085C355.425 155.457 355.679 155.847 355.934 156.219C355.016 157.009 354.225 158.18 353.161 158.534C338.786 163.246 324.385 167.83 309.974 172.433C309.783 172.496 309.492 172.251 309.256 172.151C309.119 171.77 308.983 171.389 308.856 171.007C324.294 165.706 339.732 160.395 355.17 155.085ZM306.074 184.77C310.42 193.421 309.756 194.864 300.946 196.353C296.482 189.055 297.564 186.458 306.074 184.77ZM280.925 192.649C280.78 192.195 280.634 191.751 280.498 191.297C283.98 189.853 287.462 188.401 290.936 186.957C291.154 187.357 291.372 187.765 291.59 188.165C290.199 189.245 288.799 190.316 287.408 191.397C293.045 190.162 292.627 190.253 293.781 196.035C295.118 202.699 297.291 209.189 299.073 215.762C299.337 216.742 299.491 217.75 299.673 218.758C300.982 226.229 298.982 229.252 291.417 230.55C290.308 230.741 288.153 229.56 287.771 228.526C284.935 220.982 280.816 213.728 281.962 205.132C282.171 203.543 281.344 201.727 280.716 200.121C279.461 196.871 280.225 194.483 283.353 192.894C282.553 192.804 281.734 192.722 280.925 192.649ZM271.67 195.291C271.815 199.767 276.343 204.414 271.042 208.618C271.033 208.618 271.033 208.627 271.024 208.627C271.006 208.636 270.997 208.654 270.979 208.663C273.697 208.4 274.906 209.952 275.525 212.34C277.198 218.803 278.861 225.257 280.653 231.694C281.271 233.936 280.734 235.27 278.498 236.078C275.234 237.249 272.024 238.584 268.187 240.091C265.187 231.512 262.541 223.333 262.66 214.536C262.669 213.511 264.16 212.258 265.251 211.559C267.051 210.388 269.078 209.589 271.015 208.627C268.378 209.235 265.733 209.852 263.087 210.469C261.405 201.773 263.087 197.542 271.67 195.291ZM265.023 255.505C268.46 264.429 271.242 273.616 274.443 282.639C276.025 287.079 274.843 290.174 270.633 292.253C269.369 292.879 268.242 293.778 266.524 294.895C263.887 290.692 260.914 287.024 259.123 282.848C255.468 274.351 252.44 265.582 249.167 256.912C248.076 254.044 249.285 252.419 251.858 250.994C261.059 245.919 261.259 245.756 265.023 255.505ZM211.035 275.404C212.381 274.696 213.799 274.079 215.072 273.262C218.091 271.292 220.555 271.528 223.21 274.188C232.62 283.593 238.948 294.659 242.384 307.477C243.248 310.69 242.812 313.078 240.011 315.093C237.675 316.764 235.556 318.761 232.865 321.012C226.164 304.354 217.518 289.62 200.78 280.297C206.271 276.221 211.39 272.409 216.518 268.605C216.845 269.041 217.154 269.467 217.482 269.912C215.209 271.501 212.945 273.098 210.672 274.678C210.781 274.914 210.899 275.159 211.035 275.404ZM220.564 252.936C220.5 254.298 218.527 255.587 217.436 256.912C218.318 256.495 219.118 256.413 220.036 256.268C220.8 262.187 218.854 266.226 213.599 269.177C208.862 271.837 204.644 275.395 199.389 279.117C199.998 273.144 200.252 268.16 204.544 264.52C201.789 261.297 204.726 258.374 206.135 256.695C209.808 252.328 210.099 247.281 210.744 242.215C211.59 235.724 214.136 232.883 220.7 232.175C220.709 239.138 220.882 246.046 220.564 252.936ZM202.025 236.56C206.062 225.176 211.099 219.366 217.318 219.911C214.509 227.999 210.808 234.562 202.025 236.56ZM205.089 238.021C205.507 238.275 205.935 238.529 206.344 238.784C205.244 242.733 204.544 246.854 202.944 250.594C200.016 257.403 196.425 263.921 193.406 270.702C192.506 272.754 191.924 275.395 192.388 277.501C193.961 284.746 189.242 287.206 183.669 289.902C182.259 286.833 180.841 284.283 179.895 281.559C178.795 278.373 178.932 275.64 181.205 272.327C183.796 268.541 185.342 263.603 185.905 258.991C186.76 251.974 188.869 246.391 195.706 243.259C198.952 241.77 201.971 239.782 205.089 238.021ZM186.442 290.437C188.624 288.558 191.16 287.088 193.297 285.626C209.335 296.474 223.855 308.149 224.973 327.993C235.329 330.108 244.803 332.042 254.277 333.984C254.204 334.502 254.14 335.019 254.068 335.528C246.694 337.997 239.43 338.233 232.329 334.438C231.456 333.975 230.401 333.485 229.465 333.54C221.373 333.994 217.082 328.592 212.381 323.254C206.644 316.745 200.225 310.854 194.261 304.545C191.106 301.204 188.196 297.618 185.46 293.923C184.996 293.288 185.642 291.118 186.442 290.437ZM238.293 320.921C242.157 315.175 245.821 314.276 252.049 317.826C255.45 319.768 259.023 321.448 262.414 323.409C263.723 324.171 264.76 325.406 266.105 326.577C262.85 329.781 260.105 331.152 255.85 328.846C250.194 325.778 244.103 323.499 238.293 320.921ZM252.549 308.675C255.531 306.324 258.059 304.227 260.714 302.33C261.214 301.966 262.532 302.057 263.005 302.475C267.124 306.106 271.424 309.61 275.116 313.65C279.389 318.334 278.325 320.812 271.997 321.793C270.524 322.02 268.542 321.802 267.442 320.958C262.523 317.181 257.859 313.114 252.549 308.675ZM256.677 204.369C259.586 211.168 257.277 214.073 246.549 216.733C246.83 207.782 248.622 205.649 256.677 204.369ZM247.567 218.231C250.194 216.815 253.158 215.998 256.259 214.845C260.332 223.814 260.841 232.701 260.014 241.734C259.923 242.696 258.505 243.822 257.441 244.358C254.513 245.819 251.449 247.008 248.622 248.234C247.458 239.129 246.258 230.586 245.376 222.008C245.267 220.8 246.449 218.839 247.567 218.231ZM250.213 275.931C252.767 282.367 254.977 288.967 257.95 295.194C259.641 298.735 259.259 300.804 255.986 302.711C254.122 303.8 252.431 305.18 250.14 306.796C248.694 303.891 247.53 301.304 246.158 298.835C240.621 288.749 234.993 278.727 229.474 268.641C228.801 267.407 228.61 265.918 228.183 264.556C228.01 263.739 227.456 262.368 227.701 262.205C231.601 259.645 235.602 257.248 239.575 254.815C239.793 255.151 240.011 255.469 240.221 255.805C238.457 257.348 236.684 258.891 234.92 260.435C241.548 257.72 241.775 257.593 245.276 263.893C247.367 267.661 248.612 271.9 250.213 275.931ZM239.311 207.51C242.521 215.735 240.366 220.283 231.938 222.725C234.511 217.414 236.847 212.585 239.311 207.51ZM228.719 228.48C230.338 225.956 234.465 224.994 237.548 223.542C237.875 223.387 239.266 224.558 239.521 225.33C242.012 232.683 243.839 240.1 242.003 247.971C241.284 251.066 239.83 253.118 236.966 254.552C233.402 256.331 230.038 258.537 226.419 260.653C224.828 252.473 225.71 250.994 231.365 248.152C228.783 249.296 230.065 248.733 227.037 250.059C225.392 242.433 224.519 234.998 228.719 228.48ZM217.9 228.743C221.191 224.204 221.782 217.859 227.328 214.3C227.583 220.482 223.382 226.973 217.9 228.743ZM-51.5403 228.408C-56.8409 227.79 -61.3141 221 -61.9778 213.184C-55.3953 216.17 -55.6408 223.524 -51.5403 228.408ZM-172.863 174.702C-172.027 173.994 -171.763 172.632 -170.963 171.035C-168.236 172.133 -165.344 173.068 -162.735 174.502C-161.971 174.92 -161.389 177.153 -161.826 177.952C-163.353 180.712 -165.362 183.208 -167.345 186.032C-165.035 192.586 -171.209 207.701 -176.927 208.227C-176.446 209.026 -176 209.761 -175.564 210.497C-175.727 210.751 -175.891 211.005 -176.055 211.259C-179.382 209.952 -182.937 209.017 -185.938 207.174C-187.12 206.439 -187.874 203.47 -187.447 201.9C-184.637 191.778 -181.219 181.919 -172.863 174.702ZM-177.628 170.526C-181.273 169.11 -184.919 167.694 -188.565 166.269C-188.392 165.869 -188.211 165.47 -188.038 165.07C-184.356 166.323 -180.682 167.576 -177 168.82C-177.218 169.392 -177.428 169.964 -177.628 170.526ZM-146.215 184.924C-149.588 192.35 -147.16 192.668 -155.734 189.336C-157.08 188.818 -158.38 188.228 -160.007 187.538C-159.753 186.44 -159.671 185.859 -159.48 185.323C-155.716 175.32 -157.307 176.763 -147.533 180.957C-146.633 181.347 -145.76 183.953 -146.215 184.924ZM-141.196 196.408C-138.232 197.688 -133.568 197.27 -134.168 202.862C-135.841 208.736 -137.459 214.618 -139.205 220.464C-139.941 222.952 -141.505 223.333 -143.951 222.298C-151.506 219.075 -151.743 218.985 -149.788 210.951C-148.861 207.156 -147.506 203.434 -146.106 199.767C-145.306 197.679 -144.506 194.991 -141.196 196.408ZM-158.298 190.062C-156.043 190.371 -153.798 191.324 -151.779 192.422C-150.961 192.867 -150.124 194.592 -150.379 195.418C-152.206 201.364 -154.352 207.21 -156.271 213.129C-157.098 215.662 -158.58 215.762 -160.626 214.772C-162.208 214.01 -163.899 213.447 -165.353 212.503C-166.254 211.913 -166.808 210.787 -167.245 210.243C-165.426 203.616 -163.971 197.688 -162.089 191.905C-161.771 190.943 -159.507 189.899 -158.298 190.062ZM-183.146 211.777C-184.428 211.232 -185.692 210.651 -186.956 210.079C-186.856 209.825 -186.765 209.571 -186.665 209.317C-183.865 210.361 -180.964 211.187 -178.355 212.576C-177.446 213.057 -176.527 215.208 -176.882 216.107C-180.001 224.023 -183.328 231.857 -186.847 239.592C-187.201 240.354 -189.647 240.935 -190.62 240.49C-197.093 237.549 -197.739 236.224 -196.212 229.134C-195.393 225.312 -194.275 221.536 -193.066 217.814C-191.347 212.557 -189.256 211.622 -183.856 213.329C-182.401 213.783 -180.901 214.128 -179.419 214.518C-179.301 214.146 -179.164 213.792 -179.037 213.42C-180.41 212.875 -181.783 212.349 -183.146 211.777ZM-179.373 245.038C-176.8 235.879 -174.127 226.755 -171.218 217.705C-170.945 216.833 -168.99 216.361 -167.726 216.007C-167.135 215.835 -166.354 216.334 -165.653 216.552C-157.662 219.121 -157.616 219.139 -160.753 226.928C-164.044 235.116 -167.426 243.25 -171.036 252.065C-173.673 250.549 -176.009 249.387 -178.091 247.889C-178.855 247.344 -179.601 245.828 -179.373 245.038ZM-163.635 252.927C-160.862 244.993 -158.253 237.004 -155.58 229.043C-155.398 228.498 -155.216 227.945 -154.989 227.409C-152.734 221.944 -146.433 221.145 -142.705 225.884C-142.233 226.492 -142.214 227.445 -142.005 228.19C-144.506 234.553 -146.86 240.781 -149.406 246.945C-150.897 250.549 -152.47 254.153 -154.37 257.548C-156.116 260.671 -158.634 258.991 -160.807 257.911C-162.78 256.903 -164.662 255.868 -163.635 252.927ZM-136.059 230.532C-135.95 230.278 -135.632 229.86 -135.523 229.896C-132.041 231.049 -128.413 231.957 -125.185 233.618C-124.194 234.127 -123.503 237.05 -124.021 238.321C-128.049 248.27 -132.395 258.083 -136.641 267.942C-137.514 269.994 -138.796 270.493 -140.732 269.186C-142.651 267.879 -144.76 266.826 -146.578 265.4C-147.479 264.71 -147.942 263.449 -149.097 261.697C-144.778 251.339 -140.423 240.926 -136.059 230.532ZM-131.231 267.397C-127.467 258.256 -123.403 249.251 -119.657 240.118C-118.466 237.204 -117.084 236.814 -114.375 238.194C-112.338 239.238 -109.992 239.673 -107.756 240.272C-104.346 241.198 -102.346 243.087 -102.901 246.899C-103.055 248.043 -103.019 249.278 -103.401 250.349C-106.747 259.436 -109.847 268.641 -113.693 277.519C-116.166 283.22 -117.002 283.066 -122.549 279.843C-124.321 278.818 -126.149 277.901 -127.895 276.848C-133.568 273.452 -133.704 273.38 -131.231 267.397ZM-109.211 285.208C-105.256 273.353 -101.128 261.56 -97.1001 249.732C-96.1091 246.818 -94.5089 246.173 -91.8541 247.807C-89.9993 248.951 -88.0082 249.886 -86.117 250.966C-80.48 254.234 -80.7983 254.116 -83.1258 259.972C-87.5718 271.156 -91.6177 282.503 -95.8454 293.778C-96.1909 294.686 -96.6273 295.557 -97.3729 297.237C-101.419 294.259 -105.21 291.654 -108.747 288.74C-109.438 288.168 -109.556 286.262 -109.211 285.208ZM-74.9612 255.197C-74.7612 254.906 -74.5612 254.625 -74.352 254.343C-69.7242 257.058 -65.0964 259.763 -60.4777 262.477C-60.6323 262.84 -60.7959 263.213 -60.9504 263.585H-63.6508C-63.5145 265.264 -62.7053 267.261 -63.3144 268.596C-68.5878 279.889 -74.2156 291.009 -79.5435 302.284C-82.162 307.849 -82.4803 308.067 -87.5445 304.299C-88.4719 303.61 -89.3538 302.811 -90.3539 302.23C-93.2361 300.568 -93.1633 298.626 -91.9449 295.684C-88.8173 288.113 -86.3353 280.279 -83.244 272.69C-81.3256 268.006 -78.8889 263.521 -76.3795 259.118C-75.8976 258.265 -74.052 258.201 -72.8246 257.775C-73.5247 256.921 -74.2429 256.05 -74.9612 255.197ZM-51.6312 269.885C-51.2676 269.386 -50.9039 268.895 -50.5402 268.405C-45.4669 272.281 -40.3936 276.158 -34.9839 280.297C-51.1494 289.757 -60.0958 304.191 -66.6238 321.066C-70.0424 318.234 -73.161 315.883 -75.934 313.178C-76.7068 312.415 -76.8341 310.491 -76.5613 309.256C-73.4701 295.412 -66.6694 283.629 -56.4954 273.725C-54.2316 271.528 -52.0222 271.355 -49.431 272.917C-47.5944 274.024 -45.6851 275.041 -43.212 275.277C-46.0215 273.489 -48.8218 271.691 -51.6312 269.885ZM-96.5 302.266C-96.1636 301.939 -95.0089 302.048 -94.5361 302.384C-91.8722 304.29 -89.2993 306.333 -86.2898 308.639C-91.5995 313.078 -96.2364 317.199 -101.155 320.976C-103.455 322.737 -109.62 321.666 -111.293 319.505C-111.738 318.915 -111.793 317.317 -111.338 316.854C-106.483 311.889 -101.51 307.05 -96.5 302.266ZM-81.8893 316.282C-76.9978 314.158 -74.3339 318.098 -71.9608 320.749C-77.7888 323.372 -83.735 325.587 -89.2083 328.656C-93.527 331.089 -96.4819 329.99 -100.582 325.878C-93.9271 322.419 -88.0718 318.969 -81.8893 316.282ZM-58.9139 328.765C-57.741 308.53 -43.4667 296.61 -27.3557 285.753C-27.574 285.717 -27.2375 285.69 -27.0102 285.835C-16.8727 291.872 -16.0908 294.958 -25.7646 302.502C-35.5657 310.137 -42.8757 319.805 -51.3403 328.538C-53.7042 330.989 -57.7228 332.033 -61.1414 333.24C-65.2056 334.665 -69.3969 336.091 -73.6337 336.572C-78.3252 337.098 -83.1348 336.544 -87.8899 336.454C-87.9263 335.8 -87.9626 335.137 -87.9899 334.484C-78.8162 331.579 -69.506 329.309 -58.9139 328.765ZM-24.6917 285.272C-25.8101 284.137 -26.6011 281.931 -26.392 280.361C-25.7283 275.35 -26.8557 271.056 -29.3287 266.662C-32.5291 260.97 -35.2657 254.979 -37.7205 248.915C-39.0025 245.774 -39.2571 242.206 -40.0117 238.629C-28.765 240.254 -20.6186 248.833 -19.8458 259.191C-19.4548 264.52 -17.4637 269.15 -14.3633 273.625C-13.0359 275.54 -13.345 279.054 -13.8814 281.641C-14.4633 284.401 -16.1908 286.924 -17.7273 290.229C-20.2731 288.477 -22.8006 287.188 -24.6917 285.272ZM-51.2312 220.219C-45.9397 218.658 -45.9397 218.658 -35.9385 235.951C-44.5396 234.426 -45.676 231.984 -51.2312 220.219ZM-45.0486 240.472C-44.2395 247.889 -41.812 254.371 -38.1388 260.653C-37.6024 261.569 -38.257 263.194 -38.357 264.474C-33.8565 268.078 -33.9837 273.216 -33.2654 279.199C-40.1208 274.242 -46.5306 270.194 -52.1404 265.246C-53.9679 263.639 -53.7315 259.681 -54.5497 256.295C-52.9587 256.549 -51.9949 256.704 -51.0402 256.858C-54.1951 254.779 -54.8589 251.811 -54.6953 248.207C-54.4498 242.905 -54.6315 237.576 -54.6315 232.275C-47.3489 232.347 -45.5669 235.697 -45.0486 240.472ZM-73.17 207.392C-70.6516 212.557 -68.1786 217.632 -65.5692 222.988C-74.1339 220.201 -77.1614 213.955 -73.17 207.392ZM-72.6336 223.524C-64.1872 224.25 -60.4868 227.282 -60.0049 235.234C-59.5049 243.486 -59.8867 251.802 -59.8867 260.789C-65.4147 257.611 -70.3152 254.87 -75.1157 251.956C-75.8431 251.52 -76.4614 250.313 -76.4977 249.423C-76.8978 240.536 -76.4977 231.757 -72.6336 223.524ZM-90.763 204.414C-82.7257 205.195 -80.5437 207.728 -80.4073 216.76C-91.7723 213.647 -92.9451 212.203 -90.763 204.414ZM-90.8358 214.673C-87.2172 215.998 -83.8077 216.833 -80.8801 218.503C-79.689 219.166 -79.0889 221.617 -79.0162 223.288C-78.9253 225.258 -79.8708 227.246 -80.0891 229.261C-80.6073 234.099 -80.9983 238.965 -81.3892 243.822C-81.4984 245.184 -81.4074 246.573 -81.4074 248.797C-85.8443 246.809 -89.4356 245.374 -92.836 243.568C-93.7816 243.078 -94.6453 241.516 -94.6907 240.409C-95.0635 231.812 -93.5452 223.487 -90.8358 214.673ZM-107.292 207.791C-107.301 207.782 -107.319 207.764 -107.329 207.755C-110.383 204.932 -108.038 201.854 -107.556 198.913C-107.492 198.496 -105.865 197.996 -105.001 198.078C-98.2639 198.713 -94.7544 201.827 -95.8454 210.905C-99.7004 209.843 -103.519 208.808 -107.319 207.755C-104.292 209.108 -101.164 210.279 -98.3093 211.913C-97.0637 212.612 -95.4181 214.509 -95.6272 215.526C-97.282 223.569 -99.3458 231.53 -101.482 240.336C-106.519 238.321 -110.856 236.787 -114.966 234.78C-115.793 234.381 -116.311 232.075 -116.02 230.895C-114.338 224.304 -112.466 217.759 -110.383 211.277C-109.956 209.925 -108.347 208.944 -107.292 207.791ZM-125.431 189.563C-125.067 188.791 -124.458 187.339 -124.358 187.339C-121.103 188.483 -117.902 189.772 -114.684 191.043C-114.775 191.415 -114.857 191.805 -114.939 192.177C-115.675 192.359 -116.402 192.54 -117.139 192.731C-112.711 196.29 -111.756 203.307 -114.32 204.378C-114.32 206.829 -113.848 208.872 -114.411 210.56C-116.375 216.488 -118.73 222.289 -120.866 228.162C-121.885 230.977 -123.421 231.512 -126.222 230.323C-136.014 226.193 -135.986 226.292 -133.304 215.989C-131.395 208.672 -129.74 201.292 -127.795 193.984C-127.385 192.422 -126.24 191.034 -125.431 189.563ZM-138.505 184.933C-134.768 184.661 -131.931 187.793 -131.159 191.66C-132.495 193.294 -134.295 196.517 -135.077 196.29C-137.768 195.491 -142.396 196.38 -142.387 191.969C-142.378 189.418 -142.642 185.242 -138.505 184.933ZM-142.596 171.007C-142.796 171.489 -142.996 171.97 -143.205 172.442C-157.707 169.746 -187.056 159.351 -189.065 155.076C-173.573 160.395 -158.089 165.706 -142.596 171.007ZM-179.173 172.533C-179.464 173.014 -179.637 173.749 -180.064 173.931C-189.02 177.916 -189.02 187.012 -191.538 194.465C-194.775 204.006 -198.266 205.558 -206.285 199.376C-207.513 198.423 -208.213 195.128 -207.549 193.666C-204.831 187.738 -201.794 181.901 -198.157 176.509C-197.212 175.111 -193.693 175.438 -191.284 174.956C-192.429 174.384 -193.92 173.64 -195.384 172.923C-192.538 165.733 -188.092 167.167 -179.173 172.533ZM-200.648 218.267C-201.603 221.717 -203.231 225.04 -205.013 228.162C-205.531 229.07 -207.867 229.724 -208.986 229.343C-211.131 228.607 -213.114 227.209 -214.941 225.793C-216.032 224.94 -216.678 223.533 -217.65 222.207C-215.896 216.216 -214.332 210.678 -212.632 205.168C-211.941 202.953 -210.404 202.308 -208.204 203.361C-197.63 208.427 -197.13 205.513 -200.648 218.267ZM-206.849 155.756C-202.794 157.472 -198.73 159.197 -194.048 161.176C-197.503 162.692 -204.131 160.15 -207.322 156.837C-207.167 156.474 -207.004 156.11 -206.849 155.756ZM-205.267 160.613C-202.84 161.775 -200.403 162.937 -197.857 164.145C-202.203 169.764 -202.994 169.991 -208.24 167.449C-210.477 166.36 -212.686 165.243 -214.886 164.117C-215.268 163.927 -215.605 163.645 -216.205 163.246C-211.25 157.745 -211.25 157.754 -205.267 160.613ZM-216.068 165.815C-213.986 166.405 -212.086 167.603 -210.077 168.466C-204.122 171.035 -203.912 171.534 -207.049 177.017C-210.022 182.201 -213.032 187.357 -216.077 192.486C-216.541 193.276 -217.305 193.884 -218.132 194.801C-222.569 192.604 -226.77 190.625 -230.815 188.365C-231.27 188.11 -231.252 186.077 -230.779 185.242C-227.242 178.896 -223.624 172.587 -219.778 166.423C-219.332 165.688 -217.214 165.497 -216.068 165.815ZM-222.196 211.631C-222.324 212.049 -222.478 212.467 -222.633 212.866C-225.197 219.357 -225.388 219.42 -231.452 215.807C-233.325 214.691 -235.361 213.756 -237.025 212.394C-238.198 211.432 -238.889 209.87 -239.844 208.518C-238.162 203.416 -236.743 198.859 -235.143 194.374C-234.298 192.023 -232.752 191.397 -230.361 192.704C-216.432 200.302 -217.268 195.4 -222.196 211.631ZM-225.46 150.446C-222.769 151.826 -220.132 153.287 -217.459 154.722C-219.641 158.525 -222.569 159.533 -226.097 158.235C-227.933 157.554 -229.924 157.336 -231.852 156.909C-229.434 158.434 -227.015 159.96 -223.851 161.948C-228.079 169.074 -232.061 176.082 -236.425 182.845C-237.089 183.88 -239.889 184.643 -241.035 184.098C-252.563 178.733 -251.254 181.039 -245.781 171.253C-243.317 166.841 -240.962 162.356 -238.344 158.044C-237.671 156.937 -236.18 156.31 -235.061 155.466C-233.798 150.718 -229.434 148.421 -225.46 150.446ZM-241.699 197.524C-242.553 200.584 -243.735 203.552 -244.863 206.53C-245.099 207.147 -245.745 207.61 -246.472 208.463C-249.827 206.602 -253.145 204.841 -256.355 202.917C-257.128 202.454 -258.191 201.246 -258.037 200.674C-256.537 195.173 -254.973 189.672 -252.973 184.334C-252.673 183.553 -249.663 182.891 -248.554 183.453C-238.28 188.564 -238.816 187.23 -241.699 197.524ZM-234.971 146.297C-237.553 148.194 -239.935 149.937 -242.317 151.69C-242.244 152.261 -241.935 152.979 -242.162 153.378C-245.79 159.832 -249.445 166.26 -253.209 172.641C-255.209 176.046 -257.891 176.563 -261.219 174.266C-263.456 172.714 -265.883 171.452 -268.22 170.063C-265.174 163.582 -262.619 157.454 -259.428 151.671C-258.128 149.329 -255.437 147.75 -253.382 145.825C-247.272 139.589 -243.362 139.525 -234.971 146.297ZM-312.398 160.232C-310.67 156.147 -308.752 152.152 -306.461 147.169C-301.742 151.127 -297.132 154.939 -292.604 158.861C-292.204 159.215 -292.068 160.295 -292.286 160.858C-294.023 165.279 -295.868 169.664 -298.096 175.056C-303.424 170.98 -308.152 167.476 -312.67 163.718C-313.207 163.282 -312.843 161.294 -312.398 160.232ZM-314.843 150.046C-314.952 150.31 -315.053 150.582 -315.162 150.854C-318.335 158.816 -318.335 158.825 -325.417 155.312C-327.308 153.324 -327.736 151.39 -326.081 148.821C-324.699 146.66 -324.099 144.01 -322.981 141.667C-322.062 139.752 -320.88 137.964 -319.908 136.275C-318.808 136.62 -318.48 136.629 -318.28 136.793C-311.688 142.139 -311.688 142.139 -314.843 150.046ZM-304.533 145.571C-302.315 139.135 -300.642 132.417 -294.823 127.987C-294.377 127.642 -293.586 127.088 -293.341 127.243C-289.231 129.83 -285.158 132.499 -281.149 135.231C-280.83 135.44 -280.976 136.33 -280.903 136.892C-280.658 137.029 -280.412 137.165 -280.167 137.292C-283.103 143.229 -285.995 149.184 -289.077 155.048C-289.322 155.511 -290.913 155.648 -291.704 155.384C-292.914 154.985 -294.041 154.204 -295.059 153.396C-298.251 150.845 -301.378 148.195 -304.533 145.571ZM-292.023 175.492C-291.031 172.333 -289.577 169.319 -288.431 166.196C-286.849 161.92 -285.349 161.367 -281.458 163.945C-279.758 165.08 -278.166 166.405 -276.53 167.649C-278.521 173.813 -280.267 179.314 -282.13 184.788C-282.312 185.342 -283.513 186.14 -283.713 186.013C-286.567 184.143 -289.55 182.346 -292.004 180.022C-292.777 179.278 -292.468 176.917 -292.023 175.492ZM-271.584 174.312C-271.157 173.495 -268.838 172.986 -267.738 173.359C-265.574 174.076 -263.401 175.229 -261.719 176.754C-260.646 177.734 -259.701 179.868 -260.019 181.166C-261.074 185.514 -262.819 189.699 -264.101 194.002C-264.865 196.535 -266.138 197.397 -268.556 196.135C-271.002 194.864 -273.539 193.712 -275.821 192.195C-276.839 191.533 -277.357 190.108 -278.33 188.691C-276.039 183.68 -274.011 178.887 -271.584 174.312ZM-252.909 136.057C-256.809 138.617 -259.382 143.084 -265.019 142.185C-264.519 150.682 -268.574 157.572 -273.102 164.19C-273.648 164.98 -276.084 165.261 -277.185 164.762C-285.976 160.822 -286.095 159.996 -281.049 151.78C-279.157 148.712 -277.93 145.226 -276.148 142.067C-275.284 140.533 -273.83 139.325 -272.648 137.973C-268.465 131.718 -258.846 130.529 -252.909 136.057ZM-268.483 126.698C-276.084 134.832 -282.212 134.605 -290.777 125.663C-284.04 118.782 -275.257 119.281 -268.483 126.698ZM-287.622 111.592C-287.804 112.01 -287.986 112.436 -288.177 112.854C-289.831 112.246 -291.486 111.647 -293.15 111.038C-293.241 111.22 -293.323 111.401 -293.414 111.583C-291.395 112.827 -289.377 114.061 -287.358 115.296C-290.459 120.361 -298.032 121.632 -302.86 118.283C-299.487 121.151 -299.523 124.165 -302.024 127.696C-303.615 129.93 -304.279 132.825 -305.906 135.004C-307.361 136.965 -309.97 139.988 -311.388 139.652C-313.852 139.053 -316.689 136.593 -317.598 134.242C-318.126 132.853 -315.652 128.985 -313.78 128.296C-310.388 127.052 -310.197 124.437 -309.197 122.005C-308.643 120.67 -308.215 119.29 -307.697 117.865H-303.297C-305.333 115.668 -304.788 113.952 -302.242 112.718C-299.623 111.447 -297.041 109.595 -294.296 109.259C-292.195 109.014 -289.85 110.748 -287.622 111.592ZM-300.669 103.667C-308.815 111.819 -315.207 110.648 -322.944 99.8724C-312.307 94.9975 -309.506 95.4514 -300.669 103.667ZM-367.022 43.1532C-362.703 41.1106 -357.157 41.3285 -352.12 41.2014C-348.765 41.1106 -344.674 45.3773 -344.301 48.146C-348.375 48.8541 -352.602 49.0538 -356.421 50.4337C-359.794 51.6411 -362.667 54.2283 -365.84 56.062C-368.34 57.5054 -370.95 58.74 -374.878 60.7735C-374.068 54.0467 -373.423 48.6453 -372.786 43.2349C-372.141 43.2984 -371.495 43.3619 -370.859 43.4073C-371.186 46.6663 -371.513 49.9162 -371.941 54.0649C-370.086 49.6621 -369.541 44.3333 -367.022 43.1532ZM-347.311 60.5556C-349.184 61.418 -351.22 61.9718 -353.066 62.8978C-354.648 63.6966 -356.048 64.8404 -357.685 65.9298C-359.958 58.4859 -355.621 51.75 -348.629 52.1131C-346.52 52.2311 -344.601 55.9259 -342.601 57.9775C-344.165 58.849 -345.692 59.8112 -347.311 60.5556ZM-339.246 70.7502C-340.965 70.0058 -342.683 69.2614 -344.401 68.508C-344.11 67.8543 -343.819 67.1917 -343.547 66.538C-341.074 65.5848 -339.383 66.3928 -339.246 70.7502ZM-343.474 39.0136C-350.857 38.0241 -358.239 37.0437 -365.886 36.0179C-365.686 32.1779 -363.085 30.3714 -360.349 28.8553C-357.703 27.4029 -355.939 29.1458 -353.857 30.7072C-350.547 33.2128 -346.829 35.1645 -343.274 37.3523C-343.347 37.9152 -343.401 38.4598 -343.474 39.0136ZM-358.594 75.843C-358.33 72.6657 -350.629 65.9752 -347.656 66.5562C-346.538 66.7741 -345.674 68.3446 -344.61 69.3704C-345.583 71.0135 -345.929 72.2662 -346.747 72.8835C-349.411 74.8625 -352.211 76.6963 -355.066 78.3939C-355.794 78.8387 -357.239 78.9749 -357.83 78.53C-358.439 78.0943 -358.676 76.7598 -358.594 75.843ZM-353.521 84.2038C-351.002 81.8708 -348.056 79.9916 -345.238 78.0035C-344.683 77.6132 -343.81 77.6949 -343.156 77.4135C-337.164 74.8444 -335.882 75.3255 -332.845 80.7451C-337.946 85.6744 -342.865 90.4585 -347.874 95.1609C-348.493 95.751 -349.738 96.2957 -350.438 96.0687C-352.784 95.3152 -355.348 85.8923 -353.521 84.2038ZM-321.017 56.3798C-326.708 60.1562 -328.872 59.784 -331.454 53.5384C-333.191 49.3443 -334.146 44.7963 -334.991 40.3117C-335.137 39.531 -332.945 37.4613 -331.909 37.4976C-330.072 37.5884 -327.199 38.3872 -326.654 39.6854C-324.417 44.9688 -322.908 50.5517 -321.017 56.3798ZM-324.135 37.2343C-317.662 36.5898 -316.689 37.2797 -315.507 42.6902C-314.707 46.3758 -313.734 50.0252 -312.97 53.7199C-312.825 54.4099 -313.316 55.245 -313.507 56.0076C-314.261 55.7625 -315.434 55.7443 -315.716 55.236C-318.598 49.9344 -321.362 44.5512 -324.099 39.1588C-324.326 38.7049 -324.135 38.0423 -324.135 37.2343ZM-332.564 63.1792C-333.146 63.3607 -333.709 63.5423 -334.282 63.7239C-335.564 59.8385 -336.846 55.9531 -338.11 52.0768C-337.401 51.8862 -336.691 51.7046 -335.982 51.5049C-335.573 55.6081 -329.991 58.2226 -332.564 63.1792ZM-346.074 99.9268C-341.356 95.7328 -336.81 91.2665 -331.682 87.6443C-327.909 84.9754 -323.963 86.201 -319.935 91.1394C-330.718 91.4208 -333.318 99.7271 -337.755 106.209C-339.019 108.043 -341.101 109.323 -342.801 110.866C-344.219 108.006 -345.738 105.174 -346.983 102.233C-347.229 101.679 -346.647 100.435 -346.074 99.9268ZM-312.879 39.5492C-312.561 39.1861 -312.252 38.8411 -311.934 38.4871C-310.652 39.4947 -308.379 40.4116 -308.27 41.5282C-307.861 46.1852 -308.097 50.9058 -308.097 55.59C-308.434 55.6898 -308.761 55.7715 -309.097 55.8714C-310.352 50.4246 -311.616 44.996 -312.879 39.5492ZM-300.142 53.8652C-300.178 54.6005 -301.196 55.2813 -301.751 55.9803C-302.287 55.2723 -303.26 54.5823 -303.297 53.847C-303.442 49.8799 -303.369 45.9038 -303.369 41.9367C-302.824 41.7733 -302.278 41.6008 -301.742 41.4283C-301.187 42.2726 -300.196 43.0714 -300.151 43.9429C-299.96 47.2382 -299.969 50.5699 -300.142 53.8652ZM-227.27 88.888C-225.588 79.9462 -223.678 75.6886 -221.233 75.4617C-219.741 84.3672 -222.351 90.1499 -227.27 88.888ZM-215.25 58.0592C-214.896 57.9866 -214.541 57.914 -214.186 57.8322C-212.768 61.4907 -211.041 65.0674 -210.168 68.8529C-209.986 69.6609 -212.913 71.1769 -215.241 73.0379V58.0592H-215.25ZM-215.259 74.8716C-215.068 73.9366 -212.413 73.2739 -210.795 73.0197C-210.186 72.9199 -208.749 74.2816 -208.686 75.0623C-208.413 78.3666 -208.067 81.7709 -208.577 85.0026C-209.277 89.4055 -213.095 88.4795 -216.905 88.9697C-216.359 83.6954 -216.159 79.22 -215.259 74.8716ZM-221.605 66.3474C-220.778 67.2733 -219.96 68.1902 -218.65 69.6518C-220.069 71.2495 -221.069 72.3933 -222.069 73.5281C-222.605 72.5295 -223.678 71.4492 -223.542 70.5414C-223.315 69.0889 -222.296 67.7454 -221.605 66.3474ZM-228.006 57.224C-227.642 58.7945 -227.124 60.3468 -227.079 61.9173C-227.079 62.2532 -228.852 62.6254 -229.806 62.9885C-229.924 61.1911 -230.043 59.4027 -230.17 57.6053C-229.443 57.4782 -228.724 57.3511 -228.006 57.224ZM-231.616 69.4884C-231.006 68.163 -230.125 66.9647 -229.361 65.721C-228.543 67.0192 -227.742 68.3082 -227.279 69.0345C-227.642 71.1133 -227.552 72.4115 -228.106 73.3193C-228.734 74.3814 -229.943 75.0986 -230.906 75.961C-231.352 74.7718 -232.007 73.6189 -232.179 72.3933C-232.316 71.4765 -232.025 70.378 -231.616 69.4884ZM-230.452 78.058C-229.961 78.1125 -229.106 79.4651 -229.279 79.8554C-230.47 82.597 -231.897 85.2296 -233.261 87.8985C-233.77 87.6353 -234.28 87.3811 -234.789 87.1178C-234.189 84.3672 -233.707 81.5893 -232.898 78.9022C-232.734 78.3848 -231.252 77.9672 -230.452 78.058ZM-238.516 53.1026C-234.643 54.4462 -232.934 59.1122 -234.87 61.4998C-235.234 61.9446 -236.334 62.3803 -236.68 62.1715C-237.434 61.6995 -238.353 60.8461 -238.444 60.0745C-238.662 57.8504 -238.516 55.5809 -238.516 53.1026ZM-237.844 74.8807C-242.662 72.2935 -239.417 68.7077 -239.162 65.485C-234.616 65.1491 -234.016 65.7392 -235.325 69.443C-235.98 71.3221 -236.989 73.0833 -237.844 74.8807C-237.816 74.8898 -237.798 74.9079 -237.771 74.917C-237.789 74.917 -237.816 74.9079 -237.834 74.9079C-236.016 78.6117 -237.253 81.7164 -240.126 84.0858C-241.044 84.8574 -242.944 84.4489 -244.399 84.5941C-244.453 83.3232 -245.063 81.5349 -244.463 80.8994C-242.408 78.7661 -242.562 74.0274 -237.844 74.9079C-237.834 74.8988 -237.844 74.8898 -237.844 74.8807ZM-245.244 50.933C-244.699 50.8513 -244.163 50.7787 -243.626 50.706C-243.19 51.7682 -242.281 52.8757 -242.38 53.8742C-242.944 58.8853 -243.699 63.8963 -244.562 68.8711C-244.681 69.5701 -246.135 70.7321 -246.454 70.5868C-247.345 70.1874 -248.699 69.0617 -248.59 68.4353C-247.636 62.58 -246.408 56.7701 -245.244 50.933ZM-247.09 75.5797C-249.09 77.7312 -250.918 79.7283 -253.509 82.5244C-253.755 75.6523 -251.572 73.5553 -247.09 75.5797ZM-250.945 45.8947V59.5026C-254.2 56.4161 -254.091 50.9693 -250.945 45.8947ZM-253.191 61.0822C-252.418 61.3636 -251.654 61.6541 -250.881 61.9355C-251.663 63.8056 -252.427 65.7029 -253.318 67.5185C-253.364 67.6183 -254.527 67.1644 -255.173 66.9738C-254.518 65.0038 -253.854 63.043 -253.191 61.0822ZM-259.764 56.3344C-260.401 50.7877 -260.974 45.7858 -261.565 40.7112C-255.773 42.0002 -254.582 50.2884 -259.764 56.3344ZM-267.674 53.8833C-267.665 53.8743 -267.647 53.8652 -267.638 53.847C-268.474 52.1585 -269.802 50.5245 -269.975 48.7724C-270.338 44.9688 -270.093 41.1015 -270.093 37.2615C-269.647 37.0255 -269.211 36.7895 -268.765 36.5444C-267.611 37.661 -265.383 38.9047 -265.483 39.8851C-266.001 44.5602 -262.665 49.9072 -267.629 53.847C-267.611 53.8743 -267.592 53.9015 -267.583 53.9287C-267.583 53.9287 -267.592 53.9287 -267.592 53.9378C-264.547 55.9894 -264.938 58.7219 -266.438 61.3999C-266.792 62.0263 -268.793 62.5165 -269.293 62.1261C-271.175 60.6646 -269.929 55.2813 -267.592 53.9378C-267.62 53.9196 -267.647 53.9015 -267.674 53.8833ZM-281.394 31.261C-275.357 32.4502 -272.82 38.8593 -274.366 49.3897C-279.412 49.2626 -281.221 47.6558 -281.367 42.8899C-281.476 39.0045 -281.394 35.1191 -281.394 31.261ZM-280.23 50.706C-273.857 51.4686 -272.948 52.9574 -274.502 60.0654C-281.785 60.5738 -283.103 58.4314 -280.23 50.706ZM-285.976 28.9007C-285.531 33.9935 -285.085 39.0862 -284.613 44.3878C-288.759 43.2712 -290.068 33.7121 -285.976 28.9007ZM-288.568 53.5565C-288.486 52.1222 -288.577 50.6334 -288.222 49.2717C-288.031 48.5092 -287.104 47.9282 -286.504 47.2746C-285.867 47.9463 -284.694 48.609 -284.676 49.299C-284.622 51.4323 -284.831 53.611 -285.285 55.6989C-285.467 56.5432 -286.567 57.1786 -287.249 57.9049C-287.74 57.0334 -288.331 56.1891 -288.677 55.2632C-288.877 54.773 -288.622 54.1194 -288.568 53.5565ZM-292.768 56.1256C-292.804 56.3344 -294.25 56.6703 -294.65 56.3888C-295.387 55.8896 -296.259 54.9999 -296.305 54.2283C-296.487 50.9602 -296.387 47.6921 -296.387 44.4241C-295.878 44.1608 -295.377 43.8885 -294.877 43.6252C-293.777 44.6964 -291.786 45.7222 -291.741 46.8388C-291.623 49.9253 -292.277 53.0482 -292.768 56.1256ZM-292.623 29.1367C-292.341 32.9313 -292.495 36.7713 -292.495 40.5932C-292.868 40.811 -293.25 41.038 -293.623 41.2649C-294.677 40.0394 -296.314 38.95 -296.641 37.5702C-297.25 34.9467 -297.25 32.1325 -297.159 29.4091C-297.132 28.583 -295.796 27.067 -295.323 27.1577C-294.286 27.3938 -292.677 28.3742 -292.623 29.1367ZM-298.341 17.2718C-296.932 18.7788 -295.514 20.2857 -294.096 21.7927C-299.06 23.6264 -298.987 20.7396 -299.369 18.2522C-299.042 17.9254 -298.696 17.5986 -298.341 17.2718ZM-304.333 25.1515C-299.523 28.4741 -301.533 33.2491 -299.978 37.0255C-305.151 37.2525 -306.579 33.3217 -304.333 25.1515ZM-307.997 16.4094C-306.242 18.1615 -304.479 19.9044 -302.215 22.1558C-307.215 22.764 -307.361 22.6188 -308.87 17.3535C-308.579 17.0358 -308.288 16.7181 -307.997 16.4094ZM-309.779 27.2485C-309.379 29.3728 -309.252 31.5515 -308.979 33.9299C-308.834 36.7623 -309.897 37.6882 -312.889 36.3174C-316.971 34.4655 -318.462 30.9614 -318.898 26.9762C-318.989 26.1864 -317.098 24.4616 -316.053 24.4071C-313.652 24.2528 -310.497 23.5175 -309.779 27.2485ZM-322.544 15.084C-320.335 15.0568 -317.835 14.7209 -315.989 15.6287C-314.262 16.473 -313.225 18.7061 -311.898 20.3311C-312.089 20.7215 -312.27 21.13 -312.47 21.5203C-314.58 21.4023 -316.871 21.7654 -318.744 21.0483C-320.499 20.3856 -321.908 18.6608 -323.263 17.2083C-323.517 16.9178 -322.817 15.0931 -322.544 15.084ZM-323.181 27.9475C-322.517 29.9538 -321.626 31.8965 -320.844 33.8664C-326.081 35.5186 -331.3 31.0794 -333.264 23.5719C-327.372 21.3024 -325.063 22.3283 -323.181 27.9475ZM-327.836 19.9317C-335.173 21.9198 -337.701 21.13 -340.892 16.0281C-334.246 12.7782 -329.654 14.0582 -327.836 19.9317ZM-339.319 23.69C-338.619 23.5629 -337.446 24.4797 -336.955 25.2151C-335.046 28.0928 -333.327 31.1067 -331.227 34.5745C-340.846 37.7881 -346.12 31.2247 -352.539 27.766V26.4315C-348.138 25.4783 -343.756 24.4525 -339.319 23.69ZM-343.756 21.1027C-350.011 26.3498 -355.957 26.3044 -361.94 20.8032C-355.739 18.3975 -349.702 13.6769 -343.756 21.1027ZM-350.038 2.62904C-349.811 3.1374 -349.593 3.64577 -349.366 4.15414C-354.375 6.36917 -359.367 8.58419 -364.376 10.7901C-364.604 10.2636 -364.84 9.72802 -365.076 9.2015C-360.058 7.0137 -355.048 4.81683 -350.038 2.62904ZM-366.622 24.7339C-365.522 24.0349 -363.103 25.3694 -361.176 26.4769C-366.358 29.1731 -367.931 36.4808 -375.641 36.272C-373.732 31.1067 -370.732 27.3393 -366.622 24.7339ZM-376.632 45.5407C-377.187 52.5852 -377.723 59.3483 -378.251 66.0932C-381.942 60.7735 -380.496 47.0658 -376.632 45.5407ZM-373.305 67.9451C-369.222 64.7769 -365.213 61.5179 -359.858 59.902C-358.685 65.1491 -360.476 68.9709 -365.076 72.0121C-369.977 75.262 -374.496 79.0838 -378.996 82.5244C-380.687 77.2228 -378.823 72.2299 -373.305 67.9451ZM-375.35 105.292C-377.032 99.473 -380.142 93.7447 -376.078 87.6171C-375.669 93.5269 -371.623 99.246 -375.35 105.292ZM-371.168 83.4231C-368.313 80.6089 -366.477 76.6146 -360.721 78.5391C-359.603 86.3371 -369.568 88.2253 -371.623 94.9612C-374.141 90.7581 -374.923 87.1269 -371.168 83.4231ZM-365.667 123.185C-366.295 124.319 -367.013 125.418 -368.24 126.244C-371.268 121.215 -374.314 116.794 -372.305 111.292C-369.541 103.749 -367.713 95.6421 -360.794 90.3496C-359.685 89.4963 -358.621 88.5794 -357.085 87.3266C-354.03 93.1093 -351.266 97.8389 -355.003 103.821C-358.912 110.058 -362.14 116.712 -365.667 123.185ZM-354.712 151.572C-358.394 145.698 -363.094 140.387 -364.04 133.025C-360.567 139.035 -357.094 145.054 -353.621 151.063C-353.984 151.227 -354.357 151.399 -354.712 151.572ZM-353.039 146.47C-353.593 146.633 -354.139 146.806 -354.693 146.96C-357.603 141.277 -360.84 135.721 -363.231 129.821C-363.858 128.268 -362.176 125.518 -361.085 123.584C-357.712 117.638 -354.102 111.828 -350.566 105.982C-350.438 105.782 -350.075 105.737 -349.811 105.619C-343.256 116.086 -342.165 115.051 -348.565 125.009C-350.257 127.633 -351.066 130.992 -351.657 134.124C-352.448 138.172 -352.611 142.348 -353.039 146.47ZM-339.873 169.491C-343.783 164.771 -347.702 160.05 -351.611 155.33C-351.357 155.103 -351.093 154.876 -350.838 154.658L-338.664 168.42C-339.064 168.774 -339.464 169.137 -339.873 169.491ZM-339.046 165.887C-342.628 161.575 -347.493 157.463 -349.838 152.243C-351.329 148.93 -349.565 143.81 -348.42 139.725C-347.029 134.759 -344.838 130.011 -342.81 125.236C-342.019 123.393 -340.992 121.505 -339.583 120.144C-338.837 119.417 -337.046 119.753 -335.737 119.599C-336.746 112.799 -333.073 107.888 -328.727 103.494C-327.863 102.623 -324.926 102.514 -323.89 103.304C-320.226 106.091 -316.825 109.286 -313.671 112.645C-312.961 113.399 -313.125 115.741 -313.77 116.839C-315.616 119.953 -317.898 122.812 -320.035 125.745C-322.071 128.523 -324.208 129.721 -326.936 126.389C-327.608 125.563 -328.89 125.236 -329.891 124.673C-325.09 130.057 -326.908 135.286 -329.536 141.068C-333.073 148.875 -335.728 157.082 -339.046 165.887ZM-321.844 170.399C-322.699 174.103 -323.744 177.761 -324.699 181.438C-325.29 181.729 -326.236 182.4 -326.399 182.246C-329.181 179.677 -331.864 176.99 -334.073 173.577C-333.464 173.704 -332.855 173.849 -332.245 173.976C-335.664 167.567 -332.582 162.093 -329.518 156.764C-328.963 155.811 -326.799 155.784 -325.381 155.33C-319.708 159.279 -320.544 164.825 -321.844 170.399ZM-305.206 195.336C-304.788 196.517 -304.351 197.769 -303.897 199.022C-304.233 199.349 -304.56 199.676 -304.897 200.003C-307.206 198.26 -309.352 196.217 -311.852 194.819C-319.88 190.298 -322.435 184.198 -318.453 175.556C-317.035 172.469 -316.371 169.038 -315.143 164.98C-309.888 169.028 -305.324 172.523 -300.805 176.082C-300.287 176.491 -299.696 177.353 -299.769 177.907C-300.551 183.208 -301.378 188.519 -302.46 193.766C-302.597 194.438 -304.242 194.81 -305.206 195.336ZM-292.786 209.035C-295.714 206.82 -298.632 204.614 -301.56 202.399C-301.196 201.936 -300.815 201.464 -300.451 201.001C-297.678 203.398 -294.914 205.803 -292.141 208.209C-292.359 208.481 -292.568 208.754 -292.786 209.035ZM-289.477 208.055C-292.614 205.204 -295.768 202.49 -298.714 199.558C-299.396 198.877 -299.842 197.343 -299.578 196.435C-298.178 191.605 -296.514 186.839 -294.932 182.055C-284.476 185.823 -282.276 196.571 -289.477 208.055ZM-272.611 216.252C-274.13 217.233 -276.848 217.632 -278.476 216.969C-284.967 214.346 -286.213 211.168 -283.876 204.596C-282.531 200.81 -280.967 197.116 -279.23 192.695C-275.512 194.964 -272.511 196.716 -269.611 198.614C-268.82 199.131 -268.065 200.003 -267.756 200.883C-266.192 205.268 -268.629 213.674 -272.611 216.252ZM-256.928 228.653C-260.101 226.801 -263.374 225.094 -266.365 222.979C-267.011 222.525 -267.02 220.519 -266.683 219.429C-265.601 215.98 -264.038 212.675 -263.01 209.208C-261.692 204.796 -259.01 204.296 -255.073 205.531C-247.336 207.973 -245.799 210.678 -248.245 218.295C-248.772 219.947 -249.445 221.572 -249.89 223.251C-250.8 226.637 -253.2 227.79 -256.928 228.653ZM-236.443 240.109C-240.453 238.402 -244.363 236.923 -248.063 235.016C-248.845 234.617 -249.472 232.356 -249.054 231.476C-246.799 226.764 -244.235 222.207 -241.708 217.632C-240.453 215.381 -238.926 214.827 -236.343 216.198C-225.469 221.962 -224.224 226.71 -231.488 237.077C-232.416 238.402 -234.47 238.938 -236.443 240.109ZM-219.996 250.649C-221.896 249.941 -223.697 248.942 -225.506 248.007C-226.788 247.344 -227.997 246.545 -229.852 245.438C-226.633 239.719 -223.669 234.426 -220.66 229.161C-220.314 228.553 -219.432 227.591 -219.205 227.69C-215.45 229.424 -211.604 231.04 -208.177 233.292C-207.213 233.909 -207.004 236.605 -207.367 238.13C-208.095 241.062 -209.358 243.886 -210.613 246.672C-212.304 250.422 -216.223 252.065 -219.996 250.649ZM-195.739 261.66C-196.439 261.833 -197.175 261.86 -198.894 262.087C-201.476 260.689 -204.858 259.037 -207.986 257.021C-208.631 256.604 -208.904 254.525 -208.458 253.681C-206.176 249.305 -203.576 245.093 -201.139 240.799C-199.812 238.466 -198.23 238.275 -196.175 239.891C-194.248 241.416 -192.238 242.832 -190.274 244.312C-189.82 244.657 -189.265 244.975 -188.992 245.438C-187.292 248.325 -192.511 260.852 -195.739 261.66ZM-186.292 270.638C-187.874 269.921 -189.374 269.068 -191.22 268.124C-188.22 261.624 -185.447 255.587 -182.274 248.697C-179.028 250.503 -175.764 252.192 -172.682 254.18C-172.191 254.507 -172.272 256.304 -172.609 257.23C-173.827 260.498 -175.273 263.676 -176.627 266.889C-178.673 271.773 -181.428 272.862 -186.292 270.638ZM-168.39 280.061C-173.773 279.952 -176.637 276.076 -174.773 272.336C-172.654 268.078 -170.136 264.002 -167.472 260.072C-166.935 259.273 -164.672 258.855 -163.671 259.3C-157.207 262.132 -156.807 263.24 -159.635 269.758C-160.771 272.399 -161.962 275.15 -163.771 277.329C-165.026 278.854 -167.354 279.489 -168.39 280.061ZM-155.534 291.155C-163.18 285.181 -163.917 287.75 -157.943 278.309C-156.152 275.486 -154.425 272.617 -152.697 269.758C-151.388 267.579 -149.733 267.198 -147.588 268.569C-145.869 269.667 -143.969 270.511 -142.369 271.746C-141.369 272.527 -140.778 273.825 -139.741 275.25C-142.096 280.388 -143.924 285.49 -146.679 290.029C-149.033 293.896 -151.861 294.023 -155.534 291.155ZM-133.059 302.874C-140.696 303.047 -144.696 297.073 -141.814 291.527C-139.669 287.396 -137.559 283.239 -135.104 279.299C-134.559 278.418 -132.341 277.701 -131.395 278.091C-127.922 279.562 -124.558 281.359 -121.403 283.402C-120.466 284.01 -119.539 286.325 -119.966 287.051C-122.694 291.663 -125.631 296.184 -128.895 300.432C-129.995 301.876 -132.25 302.42 -133.059 302.874ZM-129.267 307.695C-124.621 302.965 -120.094 298.508 -115.729 293.887C-112.184 290.138 -108.883 291.055 -105.492 293.978C-104.628 294.722 -103.719 295.43 -102.464 296.456C-106.21 301.413 -109.511 306.551 -113.584 310.999C-117.348 315.111 -122.885 313.877 -129.267 307.695ZM-106.565 452.761C-108.047 445.78 -108.11 438.481 -107.538 431.019C-107.101 429.839 -107.056 429.921 -106.801 431.01C-107.51 438.772 -107.365 445.916 -105.392 452.688C-104.483 454.286 -105.883 454.667 -106.565 452.761ZM-97.2455 458.643C-103.974 443.828 -105.219 428.423 -102.201 412.518C-94.6544 427.279 -97.5547 443.12 -97.2455 458.643ZM-82.1711 504.614C-90.5994 494.193 -94.7544 481.574 -98.9457 469.8C-94.6271 474.13 -89.9084 478.742 -85.3715 483.526C-84.2441 484.715 -83.3349 486.395 -82.9803 488.002C-81.7983 493.258 -80.9164 498.577 -79.9163 503.87C-80.6709 504.115 -81.4164 504.369 -82.1711 504.614ZM-90.3811 475.129C-90.7539 473.44 -90.1448 473.504 -89.1901 474.148C-87.4445 476.645 -85.2988 478.86 -82.8076 480.83C-81.6893 482.527 -82.3167 482.736 -84.0714 481.992C-86.6171 480.004 -88.7082 477.707 -90.3811 475.129ZM-63.5871 526.61C-65.8965 524.477 -68.1968 522.334 -70.5152 520.201C-70.1879 519.829 -69.8697 519.439 -69.5424 519.066C-68.3968 520.138 -67.2784 521.254 -66.0783 522.271C-64.8782 523.288 -63.5872 524.204 -62.3325 525.167C-62.7416 525.648 -63.1689 526.129 -63.5871 526.61ZM209.953 560.834C205.217 571.619 199.27 581.877 194.343 592.589C185.914 610.936 177.777 629.409 169.767 647.946C167.767 652.576 164.321 655.227 160.339 657.805C153.029 662.526 145.973 667.637 138.736 672.457C129.799 678.43 121.143 684.957 111.66 689.905C106.478 692.619 99.8862 693.382 93.8765 693.591C83.848 693.936 73.7196 693.709 63.7639 692.565C58.6087 691.966 53.2263 689.687 48.8348 686.818C39.2156 680.546 30.26 673.283 20.8589 666.656C16.2402 663.406 10.9941 661.019 6.52094 657.605C3.05688 654.973 -0.69812 651.85 -2.51648 648.074C-9.33545 633.93 -15.2271 619.342 -21.8278 605.08C-28.4194 590.828 -35.7385 576.902 -42.1665 562.586C-45.3487 555.505 -47.2489 547.844 -50.0583 539.483C-47.8308 539.664 -46.6125 539.428 -45.8033 539.882C-41.7483 542.188 -37.6933 544.53 -33.8564 547.172C-32.6927 547.98 -31.9653 549.705 -31.4926 551.157C-29.0287 558.746 -27.2103 566.581 -24.2281 573.961C-21.1914 581.459 -16.8818 588.44 -13.4905 595.821C-10.472 602.384 -8.01715 609.202 -5.18951 615.865C-2.92566 621.203 -0.52533 626.486 1.95679 631.724C2.19318 632.232 3.39331 632.332 4.16614 632.523C4.69342 632.65 5.49353 632.36 5.7572 632.65C11.5124 638.578 17.204 644.551 22.9047 650.534C22.9865 650.624 22.9592 650.815 23.1138 651.85C20.9589 650.307 19.286 649.118 17.6313 647.946C19.4496 653.747 45.6436 667.446 55.4447 666.992C43.3069 664.632 31.6965 658.359 25.7504 652.395L18.9678 643.825V642.817L19.3043 636.581L22.2136 637.779L30.8419 642.491C36.9244 643.852 46.9529 651.414 56.6721 658.477C57.2267 659.321 57.7632 659.775 57.8086 660.283C58.5905 667.564 63.8093 668.454 69.5827 668.363C80.8022 668.209 92.0126 667.982 103.232 667.7C104.314 667.682 105.651 667.782 106.242 667.001C106.551 666.611 106.651 665.966 106.405 664.968H106.378C106.369 664.986 106.351 665.013 106.342 665.031C106.351 665.013 106.351 664.986 106.36 664.968C105.86 664.986 105.36 664.995 104.86 665.013C96.1585 665.267 87.4302 665.576 78.7292 665.649C77.8291 665.658 76.3926 664.26 76.1017 663.252C75.047 659.584 72.4012 658.241 67.6098 657.197C69.61 660.556 71.0465 662.989 72.4922 665.431C66.7733 667.038 64.8094 662.789 62.6001 658.931C62.591 658.931 62.5819 658.922 62.5728 658.922C63.1365 660.846 63.682 662.771 64.2366 664.714C64.2639 664.804 64.2912 664.895 64.3185 664.986C61.8 665.222 60.6272 664.677 59.618 661.582C59.227 660.374 58.8542 658.777 58.4451 656.689C59.918 657.487 61.009 658.068 62.0455 658.631C62.2183 658.731 62.4001 658.822 62.5728 658.922C62.5728 658.904 62.5637 658.895 62.5637 658.876C62.5728 658.895 62.5819 658.913 62.6001 658.931C62.6001 658.94 62.6092 658.94 62.6092 658.94C63.3638 657.705 64.1276 656.462 64.9549 655.1C62.1728 653.248 59.3088 651.278 56.3812 649.417C54.2173 648.046 53.0808 646.467 53.7081 643.671C54.5173 640.04 53.1899 638.324 49.0167 637.825C35.5242 636.209 31.9329 629.999 34.8514 616.346C39.6065 619.36 43.8434 622.41 48.4258 624.852C54.0173 627.848 54.5992 632.886 54.9083 638.26C55.3266 645.568 60.8999 648.682 67.928 648.528C71.692 648.437 75.4561 649.308 79.2293 649.308C86.5665 649.29 93.9037 648.981 101.232 648.773C105.76 648.636 110.451 644.769 111.606 640.285C111.888 639.159 112.106 638.015 112.342 636.871C112.87 634.248 112.479 630.263 114.052 629.237C119.943 625.415 123.816 618.198 131.981 618.089C134.472 629.927 132.335 635.491 118.888 637.779C114.824 638.469 112.397 639.032 113.06 643.97C113.279 645.632 111.851 648.037 110.442 649.281C107.869 651.541 104.76 653.185 101.877 655.082C101.886 655.164 101.896 655.236 101.896 655.318H101.905C101.932 655.645 101.959 655.962 101.996 656.289C104.369 656.171 106.76 656.053 109.205 655.926C109.187 655.999 109.16 656.053 109.142 656.126C108.287 658.904 107.333 661.936 106.378 664.968C106.387 664.968 106.387 664.968 106.396 664.968C107.66 662.88 108.915 660.792 110.197 658.677C115.588 660.474 117.052 659.003 118.479 649.844C119.589 650.606 120.552 651.26 121.325 651.786C122.862 650.979 124.244 650.252 125.616 649.526C125.835 649.853 126.053 650.171 126.271 650.488C129.817 644.951 132.326 643.271 136.472 643.998C135.599 644.96 134.999 646.185 134.09 646.512C131.208 647.529 131.363 649.417 131.381 652.013C131.408 656.961 127.535 659.648 123.762 661.781C120.289 663.742 116.406 664.986 112.188 666.765C119.407 668.245 146.973 654.074 149.965 647.411C147.883 648.918 146.219 650.134 144.555 651.342C144.3 651.069 144.046 650.788 143.791 650.516C147.819 646.721 151.874 642.972 155.838 639.114C157.384 637.607 158.675 635.864 160.084 634.221C160.375 633.894 160.539 633.304 160.875 633.204C169.476 630.807 168.176 621.865 171.767 616.219C175.349 610.581 176.559 603.501 179.423 597.337C182.878 589.875 187.387 582.903 190.678 575.395C193.515 568.914 195.688 562.069 197.37 555.188C198.461 550.73 200.271 547.48 204.335 545.302C207.99 543.35 211.499 541.099 215.063 538.983C215.554 539.319 216.036 539.646 216.527 539.982C214.372 546.927 212.872 554.189 209.953 560.834ZM-18.8365 565.201V576.857C-23.4644 573.607 -23.3189 571.819 -18.8365 565.201ZM13.2672 632.314L12.1398 632.16C11.9488 633.567 11.7579 634.983 11.5851 636.218C8.14838 634.429 5.56628 630.689 6.29364 627.748C6.60272 626.513 7.57556 625.442 8.23932 624.307C9.39398 625.224 10.5941 626.087 11.667 627.094C12.0034 627.421 11.9579 628.157 12.067 628.656C17.213 628.819 17.6403 629.709 18.4404 641.41C14.4672 639.631 14.2036 639.177 13.2672 632.314ZM17.013 625.996C22.4863 628.456 27.1232 630.099 31.2328 632.614C32.8603 633.612 33.3149 636.554 34.4969 639.023C29.2781 640.321 26.0686 640.058 23.7866 635.927C21.9409 632.596 19.5042 629.6 17.013 625.996ZM31.642 621.902C31.2601 622.755 29.6417 623.481 28.5871 623.49C26.2686 623.536 23.9229 623.245 21.65 622.782C15.4947 621.539 13.3308 616.455 15.4129 607.422C16.9221 608.766 17.9131 609.837 19.0861 610.627C21.1499 611.998 22.0045 614.757 26.0232 613.486C30.06 612.234 33.4968 617.853 31.642 621.902ZM16.2675 625.079C8.08472 623.173 4.39343 618.97 5.55725 613.314C9.03033 617.136 12.2852 620.713 16.2675 625.079ZM7.79382 607.949C1.37488 604.045 -3.75299 598.68 -0.0252686 590.519C0.893005 591.872 1.72034 592.725 2.11133 593.733C3.80243 598.018 6.15717 601.658 10.2395 604.154C11.2578 604.781 11.476 606.723 12.067 608.049C10.6304 608.049 8.84845 608.593 7.79382 607.949ZM3.39331 614.086C3.44781 615.529 2.72955 615.583 1.62036 614.939C-0.370789 610.745 -2.362 606.551 -4.36218 602.366C-4.12579 599.406 -3.66211 599.261 -2.97107 601.721C-0.843567 605.852 1.27484 609.964 3.39331 614.086ZM-10.9902 574.079C-8.17169 579.144 -5.34412 584.219 -2.31647 589.63C-9.5719 588.894 -12.4904 582.803 -10.9902 574.079ZM-7.03516 603.292C-8.09894 600.841 -9.02637 598.689 -10.2719 595.812C-3.93488 597.627 -3.39838 598.907 -7.03516 603.292ZM34.6969 638.042C40.5157 639.431 45.4072 640.484 50.1987 641.864C50.9624 642.082 51.2806 643.816 51.7989 644.851C50.1623 645.641 48.3439 647.32 46.9165 647.039C44.3071 646.521 41.9068 644.851 39.4429 643.644C38.5336 643.199 37.3608 642.908 36.8154 642.173C35.8607 640.893 35.3151 639.304 34.6969 638.042ZM58.3905 634.983C58.3996 633.413 58.936 630.816 59.8179 630.535C61.3908 630.036 64.4367 630.344 65.055 631.388C67.3916 635.374 70.8646 634.411 74.2105 634.302C79.9657 634.139 79.9658 634.103 80.0658 640.076C80.1385 644.615 77.0381 646.676 70.7192 646.095C68.2643 645.877 65.7095 645.659 63.4456 644.815C61.8818 644.234 60.218 642.826 59.527 641.356C58.636 639.459 58.3905 637.126 58.3905 634.983ZM86.9756 635.083C88.0667 633.812 91.1488 634.239 93.3218 633.894C96.6404 634.084 100.304 635.673 102.596 631.488C103.132 630.517 105.905 630.163 107.369 630.562C108.151 630.771 108.724 633.204 108.705 634.62C108.551 643.353 104.378 646.739 94.8402 646.076C93.6855 645.995 92.5308 645.786 91.3852 645.586C87.1029 644.833 84.1299 638.424 86.9756 635.083ZM169.149 589.857C172.258 584.673 175.086 579.98 177.904 575.304C179.314 582.658 176.295 588.876 169.149 589.857ZM176.886 596.311C176.031 598.317 175.177 600.323 174.322 602.33C173.94 602.402 173.558 602.457 173.186 602.529C172.658 601.304 171.349 599.57 171.749 598.971C172.722 597.509 174.486 596.583 175.931 595.439C176.259 595.73 176.568 596.02 176.886 596.311ZM169.431 602.675C169.812 602.811 170.203 602.956 170.585 603.092C168.94 606.85 167.285 610.6 165.639 614.358C164.93 614.086 164.23 613.813 163.521 613.541C165.494 609.919 167.458 606.297 169.431 602.675ZM155.693 636.218C155.374 633.612 154.665 631.189 154.911 628.874C155.193 626.232 156.465 623.835 159.902 624.071C160.884 631.652 160.839 631.788 155.693 636.218ZM153.511 632.178C152.865 635.482 153.465 639.586 148.383 641.347C148.846 637.743 149.056 634.729 149.701 631.815C149.919 630.798 151.228 630.027 152.029 629.146C152.556 630.163 153.692 631.307 153.511 632.178ZM157.611 608.73C156.866 608.857 155.42 608.557 155.329 608.203C155.138 607.386 155.302 606.215 155.811 605.561C156.593 604.563 157.966 604.027 158.748 603.02C160.721 600.469 162.539 597.8 164.339 595.131C165.103 593.996 165.685 592.734 166.785 590.719C169.412 598.127 164.057 607.649 157.611 608.73ZM161.575 613.178C162.393 618.979 159.457 622.183 151.01 624.698C154.338 621.076 157.657 617.454 161.575 613.178ZM137.682 623.563C134.336 623.036 134.254 620.05 134.836 618.216C135.39 616.464 138.191 613.795 139.282 614.104C144.019 615.438 146.064 612.061 148.846 609.819C149.71 609.111 150.647 608.475 152.156 607.359C152.238 609.065 152.283 609.919 152.32 610.754C152.692 620.358 147.301 625.061 137.682 623.563ZM138.382 631.67C141.964 630.254 145.191 627.957 148.501 626.105C147.183 633.885 140.5 640.13 134.217 639.313C132.935 633.576 133.09 633.767 138.382 631.67ZM133.363 656.008C132.899 655.663 132.445 655.327 131.981 654.982L143.928 637.87C145.819 646.576 142.255 651.95 133.363 656.008ZM115.497 643.226C116.643 642.391 118.179 642.091 119.57 641.637C123.425 640.375 127.28 639.132 131.463 637.779C132.308 640.176 131.517 641.846 128.808 642.963C126.126 644.061 123.716 645.84 120.989 646.766C119.588 647.238 117.652 646.784 116.188 646.176C115.597 645.931 115.143 643.471 115.497 643.226ZM185.041 572.708C185.169 570.466 185.651 568.251 185.987 566.018C186.342 565.872 186.696 565.718 187.051 565.564C187.705 568.342 188.578 571.092 188.851 573.906C188.924 574.533 186.914 575.368 185.869 576.103C185.569 574.969 184.978 573.825 185.041 572.708ZM248.358 505.25C246.23 496.435 250.449 485.196 255.841 480.621C259.414 477.589 262.105 473.531 265.196 469.945C261.178 481.947 257.75 494.465 248.358 505.25ZM249.804 480.512C252.231 478.07 254.659 475.628 257.086 473.186C257.386 473.531 257.686 473.858 257.977 474.194C255.695 476.699 253.422 479.205 251.14 481.692C250.704 481.293 250.249 480.903 249.804 480.512ZM269.56 411.728C272.679 429.058 270.306 444.573 264.123 459.942C261.741 442.457 263.878 421.977 269.56 411.728ZM274.497 428.686C276.579 436.856 274.261 445.68 270.615 455.348C272.061 445.426 273.37 436.484 274.497 428.686ZM278.298 360.583C276.698 368.109 274.443 375.498 272.779 383.015C269.624 397.258 263.969 410.367 255.859 422.504C245.712 437.691 243.312 454.776 243.676 472.605C243.848 481.574 242.803 490.58 243.012 499.549C243.403 516.334 223.537 534.78 207.99 535.407C194.888 535.933 187.542 543.867 181.314 553.835C179.314 557.04 177.286 560.226 175.268 563.421C175.031 563.785 174.513 564.148 174.549 564.484C175.422 574.388 167.74 580.869 164.439 589.094C163.348 591.826 159.657 593.833 156.747 595.476C147.383 600.777 137.827 605.743 128.38 610.89C118.161 616.446 107.969 622.074 97.7405 627.621C96.8859 628.084 95.7494 628.374 94.7856 628.265C90.0215 627.766 86.1574 628.964 83.9753 634.33C80.9204 630.054 77.8018 627.276 72.8104 628.22C71.9102 628.393 70.7556 627.948 69.8918 627.485C59.9089 622.083 49.9986 616.555 39.9884 611.226C29.5963 605.688 19.0769 600.405 8.72119 594.822C6.51184 593.642 4.10248 592.008 2.91144 589.92C-0.643555 583.738 -4.54407 577.501 -6.50787 570.765C-7.84442 566.199 -8.83539 561.524 -11.4448 557.648C-15.2452 552.019 -19.4094 546.582 -23.9917 541.58C-27.6194 537.622 -32.629 536.015 -38.166 535.643C-46.6398 535.08 -54.5225 532.738 -60.405 525.993C-64.3054 521.517 -69.0424 517.559 -71.9973 512.539C-77.4979 503.225 -77.907 492.477 -77.1796 482.046C-75.6249 459.914 -77.6888 438.744 -90.4266 419.708C-96.9637 409.94 -101.81 399.41 -104.437 387.908C-106.701 378.004 -109.074 368.118 -111.365 358.214C-112.138 354.873 -111.429 352.05 -108.847 349.481C-104.574 345.205 -100.628 340.63 -96.5728 336.218C-87.3262 345.005 -77.3797 343.934 -67.3058 341.183C-61.9961 339.731 -56.5591 338.315 -51.6585 335.918C-48.4309 334.339 -46.0942 330.998 -43.2757 328.529C-41.9028 327.33 -40.5027 325.905 -38.857 325.342C-35.3748 324.162 -34.3019 321.62 -33.8019 318.425C-33.611 317.208 -33.5656 315.465 -32.7836 314.921C-28.5468 311.961 -24.1099 309.301 -19.7366 306.551C-16.8636 303.337 -13.936 300.169 -11.1538 296.883C-10.2628 295.83 -9.24451 294.45 -9.20813 293.179C-8.94452 285.345 -8.48993 277.519 -11.9903 270.03C-13.6724 266.444 -14.3906 262.396 -15.4998 258.537C-15.8271 257.43 -15.8817 256.232 -16.2089 255.124C-17.8 249.65 -18.4092 244.421 -24.419 240.472C-30.2197 236.669 -33.9384 229.642 -38.4388 223.923C-40.1299 221.762 -41.2573 219.157 -42.9484 216.969C-44.2031 215.353 -45.7578 213.819 -47.4762 212.757C-50.322 211.014 -53.3769 209.58 -56.4318 208.218C-59.8776 206.684 -59.9595 204.142 -57.5682 202.181C-52.9132 198.35 -47.8217 195.019 -42.8393 191.578C-41.7938 190.861 -40.3572 190.725 -39.2843 190.035C-26.4374 181.992 -13.4177 174.711 0.956665 169.201C10.9487 165.37 20.868 161.076 31.1147 157.781C69.9646 145.299 108.451 147.613 146.601 161.031C152.101 162.964 157.711 164.653 163.057 166.95C178.059 173.395 192.87 180.194 206.444 189.436C211.69 193.012 217.618 195.627 222.673 199.431C227.901 203.37 227.655 205.867 221.673 208.554C213.99 212.013 208.053 216.579 204.198 224.368C201.798 229.225 197.579 233.201 194.124 237.522C193.215 238.657 192.288 240.173 191.06 240.581C183.65 243.105 183.923 249.895 182.278 255.641C180.614 261.46 178.377 267.171 177.295 273.098C176.086 279.744 175.031 286.643 175.64 293.27C175.95 296.674 179.932 299.797 182.396 302.947C183.423 304.281 184.805 305.343 186.023 306.524L186.042 306.533C190.306 309.202 194.688 311.725 198.752 314.667C199.707 315.356 199.825 317.444 199.989 318.924C200.443 322.891 202.462 324.625 205.607 323.363C207.744 326.023 209.49 329.255 212.145 331.306C224.264 340.684 238.12 344.324 253.295 342.209C255.686 341.873 258.159 340.158 259.996 338.442C261.678 336.862 262.896 336.581 264.36 338.124C268.942 342.999 273.761 347.729 277.798 353.021C279.098 354.737 278.816 358.159 278.298 360.583ZM279.834 311.026C275.752 306.605 272.415 301.503 268.415 296.238C271.151 294.468 273.379 292.907 275.734 291.59C276.47 291.182 277.825 291.073 278.489 291.481C285.335 295.766 290.435 301.776 295.136 308.376C288.244 313.968 283.48 314.966 279.834 311.026ZM299.073 302.938C298.291 302.457 295.918 301.676 294.636 300.051C291.59 296.175 288.899 291.99 286.462 287.705C285.917 286.761 286.526 284.183 287.426 283.584C290.672 281.405 294.199 279.598 297.791 278.019C298.645 277.637 300.755 278.282 301.219 279.081C304.128 284.101 306.919 289.23 309.392 294.486C310.956 297.791 305.555 302.82 299.073 302.938ZM324.958 288.812C316.693 295.113 314.038 294.395 309.983 284.827C309.583 283.901 309.129 282.984 308.783 282.031C305.055 271.955 305.155 273.48 314.293 268.451C315.211 267.942 317.502 268.205 317.984 268.904C321.43 273.915 324.567 279.126 327.794 284.283C328.012 284.646 328.103 285.081 328.403 285.935C327.331 286.852 326.176 287.877 324.958 288.812ZM333.868 279.952C332.822 279.135 330.404 277.919 329.031 275.967C327.221 273.398 326.285 270.248 324.921 267.379C323.485 264.384 324.148 262.405 327.158 260.653C332.422 257.593 332.395 257.375 335.477 262.45C337.423 265.655 339.332 268.914 340.887 272.318C342.714 276.312 339.714 280.27 333.868 279.952ZM351.206 271.174C347.587 272.363 344.633 271.537 343.078 267.624C341.687 264.12 340.005 260.716 338.85 257.139C338.505 256.059 339.514 254.543 339.968 253.245C340.041 253.027 340.432 252.927 340.678 252.773C348.306 247.98 348.242 248.007 351.761 256.077C353.488 260.035 355.488 263.857 357.552 268.16C355.334 269.231 353.361 270.466 351.206 271.174ZM374.391 256.849C370.999 258.946 367.426 260.752 363.698 262.777C361.716 261.442 359.516 260.789 358.907 259.418C357.198 255.623 356.07 251.556 354.907 247.535C354.697 246.781 355.161 245.429 355.779 244.902C358.071 242.941 360.425 240.981 363.035 239.528C363.917 239.029 366.308 239.583 366.853 240.4C369.717 244.748 372.299 249.305 374.772 253.889C375.182 254.625 374.954 256.504 374.391 256.849ZM379.782 249.65C376.109 246.627 375.054 240.445 372.827 235.67C376.718 232.529 380.619 229.397 384.983 225.866C389.001 232.992 392.393 239.011 396.139 245.665C390.338 248.098 385.31 254.198 379.782 249.65ZM414.386 234.826C410.722 236.768 406.831 238.293 403.539 239.737C401.439 239.174 399.421 239.201 399.075 238.457C396.73 233.428 394.675 228.244 392.729 223.033C392.574 222.616 393.829 221.454 394.62 220.936C396.429 219.72 398.339 218.676 400.212 217.578C405.831 214.273 405.976 214.264 409.149 219.756C411.313 223.524 413.386 227.355 415.177 231.303C415.604 232.22 415.113 234.453 414.386 234.826ZM422.187 227.808C419.396 227.881 416.95 226.528 415.932 223.042C415.486 221.508 414.659 220.038 414.477 218.485C414.113 215.599 412.84 211.259 414.195 210.052C417.159 207.41 421.496 206.23 425.396 204.787C425.969 204.578 427.588 206.039 428.079 207.047C429.424 209.78 430.424 212.675 431.552 215.508C434.261 222.298 430.37 227.799 422.187 227.808ZM448.863 214.073C442.371 220.02 437.634 218.676 434.725 210.27C434.307 209.044 433.979 207.773 433.679 206.511C432.715 202.454 433.288 199.186 437.716 197.315C440.198 196.262 442.407 194.547 445.426 192.713C447.717 198.723 449.972 203.888 451.518 209.253C451.881 210.533 450.19 212.857 448.863 214.073ZM448.045 184.289C446.253 179.232 444.135 174.094 443.717 168.847C443.544 166.768 447.435 164.371 449.972 161.566C452.045 163.464 453.545 164.344 454.291 165.651C455.354 167.512 455.736 169.746 456.627 171.734C459.937 179.114 459.1 181.783 451.69 185.46C450.827 185.886 448.317 185.06 448.045 184.289ZM456.973 205.994C455.891 205.776 454.709 204.678 454.136 203.67C449.336 195.327 451.909 187.584 461.61 182.945C462.955 187.756 464.41 192.395 465.51 197.125C465.947 199.022 458.837 206.384 456.973 205.994ZM486.194 187.42C482.921 190.516 478.866 193.067 474.693 194.855C472.111 195.954 469.274 194.483 468.356 191.142C465.956 182.4 465.046 176.681 474.829 169.964C476.83 168.593 478.703 167.022 481.594 164.816C483.058 170.481 484.412 175.301 485.512 180.176C486.058 182.609 487.295 186.376 486.194 187.42ZM483.203 155.557C481.339 151.971 479.948 148.104 478.675 144.255C478.375 143.329 478.966 141.713 479.685 140.914C481.221 139.216 483.112 137.827 485.503 135.749C486.813 137.764 488.076 139.334 488.931 141.105C489.949 143.183 490.495 145.498 491.468 147.595C493.713 152.488 492.65 155.702 487.431 157.599C486.358 157.99 483.821 156.719 483.203 155.557ZM498.996 172.07C496.886 174.775 494.577 177.326 492.34 179.94C485.74 173.095 486.231 162.102 492.204 157.009C493.941 155.53 495.35 155.221 496.232 157.508C497.677 161.267 498.969 165.098 500.041 168.974C500.278 169.855 499.641 171.234 498.996 172.07ZM513.734 156.047C511.997 157.799 510.488 159.769 508.833 161.594C506.451 164.235 503.224 163.836 502.924 160.413C502.069 150.618 496.168 142.966 492.622 134.36C491.186 130.846 493.477 128.931 494.495 126.389C488.476 129.058 488.395 129.058 484.358 123.257C482.467 120.534 479.266 117.683 479.33 114.951C479.394 112.536 483.121 110.176 485.294 107.843C492.559 100.045 493.868 100.272 499.578 109.395C501.823 112.981 502.605 116.521 501.178 120.516C502.123 119.88 503.06 119.245 504.424 118.337C505.897 120.47 507.679 122.295 508.561 124.483C511.27 131.219 513.616 138.1 516.152 144.917C517.734 149.157 516.943 152.806 513.734 156.047ZM519.625 145.762C519.053 142.267 518.243 139.28 518.143 136.257C517.989 131.346 517.098 126.916 513.57 123.157C507.415 116.612 512.434 111.238 515.961 104.838C518.389 109.205 520.462 113.063 522.689 116.839C523.89 118.882 525.681 120.625 526.608 122.767C527.208 124.138 527.135 126.153 526.599 127.587C525.499 130.547 523.881 133.307 522.48 136.148C522.771 136.284 523.071 136.42 523.353 136.557C524.962 133.552 526.581 130.556 528.381 127.188C529.727 131.491 524.972 141.776 519.625 145.762ZM524.108 146.996C523.69 146.769 523.262 146.551 522.853 146.324C525.208 141.985 527.572 137.646 529.927 133.316C530.427 133.579 530.927 133.851 531.427 134.124C528.981 138.408 526.544 142.702 524.108 146.996ZM535.991 125.763C535.436 125.754 534.882 125.754 534.327 125.745C528.417 119.317 524.672 111.665 520.944 103.776C517.953 97.4849 520.335 93.1002 522.853 88.3706C534.191 93.4815 536.618 104.048 538.719 114.306C539.437 117.801 536.991 121.932 535.991 125.763ZM537.928 95.9961C535.118 88.8245 527.081 86.1828 526.599 77.5678C537.664 79.7556 541.864 86.1737 537.928 95.9961ZM541.755 105.864C537.4 99.5819 541.764 93.6903 542.392 87.6353C546.056 93.8809 542.937 99.827 541.755 105.864ZM545.51 82.8693C539.755 78.412 533.518 74.2997 528.254 69.1888C526.081 67.0827 526.008 62.8161 524.817 58.9852C537.773 62.0717 546.583 72.8109 545.51 82.8693ZM544.301 66.0387C543.837 59.5026 543.383 52.9574 542.892 46.0763C546.674 48.7724 548.029 61.4453 544.301 66.0387Z" fill="#711011" fill-opacity="0.3"/>
<path d="M12.1414 632.167C11.9504 633.574 11.7595 634.99 11.5868 636.234C8.15912 634.445 5.55884 630.696 6.29529 627.764C6.60437 626.53 7.57721 625.458 8.24097 624.314C9.39563 625.231 10.6049 626.094 11.6595 627.101C11.9959 627.428 11.9505 628.154 12.0687 628.654C17.2147 628.826 17.6511 629.716 18.4421 641.408C14.4689 639.647 14.2053 639.184 13.2688 632.321C12.896 632.267 12.5142 632.212 12.1414 632.167Z" fill="#711011" fill-opacity="0.3"/>
<path d="M131.972 654.978C135.736 649.586 139.5 644.203 143.928 637.866C145.819 646.581 142.255 651.955 133.363 655.995C132.899 655.659 132.436 655.323 131.972 654.978Z" fill="#711011" fill-opacity="0.3"/>
<path d="M155.684 636.229C155.366 633.614 154.666 631.199 154.911 628.875C155.193 626.234 156.466 623.837 159.894 624.073C160.885 631.662 160.839 631.799 155.684 636.229Z" fill="#711011" fill-opacity="0.3"/>
<path d="M148.391 641.363C148.855 637.75 149.055 634.745 149.7 631.831C149.927 630.823 151.228 630.042 152.037 629.162C152.564 630.178 153.692 631.313 153.519 632.194C152.864 635.498 153.473 639.592 148.391 641.363Z" fill="#711011" fill-opacity="0.3"/>
<path d="M62.5554 658.849C63.1373 660.882 63.7283 662.907 64.3102 664.949C60.8098 665.285 59.9006 664.096 58.4368 656.652C60.1733 657.587 61.3825 658.25 62.6009 658.903C62.5918 658.912 62.5554 658.849 62.5554 658.849Z" fill="#711011" fill-opacity="0.3"/>
<path d="M46.8339 651.922C46.5338 651.895 46.2338 651.868 45.9429 651.841C46.2429 651.868 46.5338 651.895 46.8339 651.922Z" fill="#711011" fill-opacity="0.3"/>
<path d="M-22.3706 534.697C-25.8801 533.744 -29.626 533.263 -32.8264 531.683C-35.2721 530.476 -36.8723 527.671 -39.118 525.919C-48.4464 518.583 -57.3838 511.022 -61.3297 499.184C-62.2207 496.515 -64.1663 494.218 -65.3665 491.631C-69.9489 481.772 -63.1027 471.805 -52.3105 472.667C-35.154 474.047 -18.6702 478.277 -2.90472 485.086C3.48688 487.845 9.42389 491.613 15.7338 494.572C26.3986 499.565 37.1544 504.395 47.9738 509.052C51.647 510.631 55.6292 511.512 59.3933 513.518C56.8385 513.155 54.2836 512.792 51.4651 512.392C49.9649 517.113 48.4557 521.888 46.6282 527.652C45.7281 526.209 45.4372 525.728 44.7644 524.657C41.1185 531.429 37.4999 538.156 28.2261 537.729C29.4172 538.201 30.5991 538.664 31.7902 539.136C31.7174 539.535 31.6446 539.944 31.5719 540.343C12.8243 537.538 -6.45062 538.655 -24.5254 530.875C-24.6618 531.266 -24.8073 531.647 -24.9437 532.037C-24.0981 532.936 -23.2526 533.835 -22.4161 534.733L-22.3706 534.697Z" fill="#711011" fill-opacity="0.3"/>
<path d="M117.025 512.442C113.525 512.896 111.133 513.214 108.66 513.532C108.724 513.014 108.706 512.588 108.797 512.551C128.763 506.387 147.083 496.502 165.785 487.46C180.841 480.188 196.698 475.323 213.391 473.48C216.7 473.117 220.11 472.599 223.365 472.999C232.175 474.088 236.957 484.51 232.475 492.162C231.302 494.159 230.193 496.256 229.465 498.444C225.101 511.625 215.373 520.095 204.344 527.53C202.398 528.837 201.035 531.08 199.025 532.205C196.925 533.376 194.361 533.721 191.452 534.593C192.034 533.404 192.406 532.632 192.815 531.788C183.369 533.83 174.141 536.363 164.73 537.725C155.329 539.095 145.765 539.304 136.018 539.431C137.218 538.905 138.418 538.378 140.246 537.579C138.455 537.026 137.045 536.626 135.654 536.145C133.609 535.446 130.899 535.283 129.654 533.857C124.189 527.612 116.625 522.592 117.025 512.442ZM226.729 491.2C226.856 492.916 227.392 492.344 228.038 491.073C228.238 485.799 227.847 481.051 226.819 476.875C225.71 475.813 225.174 475.649 225.574 476.984C226.283 481.096 226.792 485.59 226.729 491.2Z" fill="#711011" fill-opacity="0.3"/>
<path d="M88.0125 601.382C87.8579 600.755 87.3124 599.421 87.2306 598.05C86.7487 589.653 86.1941 581.256 86.0122 572.85C85.8486 565.351 86.9578 564.462 94.6223 564.416C95.2042 564.416 95.777 564.416 97.2408 564.416C95.977 563.754 95.4406 563.463 94.9132 563.182C94.9496 562.882 94.9951 562.583 95.0315 562.283C97.8863 562.773 100.769 563.136 103.587 563.781C106.524 564.462 109.633 564.988 112.261 566.341C119.189 569.917 121.089 574.72 119.162 582.282C116.307 593.511 111.642 597.251 99.5593 598.631C95.8225 599.085 92.1766 600.374 88.0125 601.382Z" fill="#711011" fill-opacity="0.3"/>
<path d="M78.6941 601.468C75.5937 600.433 73.0479 599.516 70.4658 598.763C69.5111 598.481 68.4384 598.617 67.4291 598.49C54.3004 596.793 47.6177 589.14 47.8814 576.14C47.945 572.818 53.3457 565.846 57.2279 564.865C62.0285 563.658 66.9654 563.032 72.166 563.095C71.6387 563.386 71.1023 563.676 70.5113 563.994C70.7295 564.121 70.9568 564.366 71.1568 564.357C79.7396 563.83 81.3853 564.557 80.9943 575.114C80.6852 583.384 79.8851 591.636 79.2487 599.897C79.2032 600.56 78.7941 601.205 78.6941 601.468Z" fill="#711011" fill-opacity="0.3"/>
<path d="M186.024 306.551C188.352 308.72 190.888 310.726 192.934 313.141C193.989 314.385 194.198 316.355 195.098 318.86C185.188 315.029 174.487 304.118 175.196 299.651C178.787 301.939 182.433 304.272 186.079 306.596C186.079 306.587 186.024 306.551 186.024 306.551Z" fill="#711011" fill-opacity="0.3"/>
<path d="M-19.7618 306.585C-16.2251 304.261 -12.6883 301.946 -8.93329 299.486C-7.52405 302.319 -9.54248 304.624 -11.3699 306.277C-15.8887 310.344 -20.7711 314.02 -25.5807 317.76C-26.108 318.169 -27.7083 318.196 -27.8082 317.969C-28.1719 317.134 -28.5356 315.827 -28.1265 315.228C-26.8264 313.339 -25.2443 311.615 -23.635 309.962C-22.4349 308.719 -21.0165 307.684 -19.6982 306.549C-19.7073 306.54 -19.7618 306.585 -19.7618 306.585Z" fill="#711011" fill-opacity="0.3"/>
<path d="M155.694 543.4C151.121 544.825 146.557 546.25 141.984 547.675C135.756 549.736 133.974 549.927 141.52 546.186C146.093 544.788 150.676 543.381 155.249 541.983C164.595 540.422 164.632 540.921 155.694 543.4Z" fill="#711011" fill-opacity="0.3"/>
<path d="M24.3698 547.694C19.7964 546.287 15.2323 544.871 10.6591 543.464C6.33124 542.647 5.31293 542.102 11.0409 542.121C15.6141 543.455 20.1873 544.789 24.7606 546.124C29.6793 547.567 28.6429 547.921 24.3698 547.694Z" fill="#711011" fill-opacity="0.3"/>
<path d="M-22.4086 534.747C-17.7081 536.154 -12.9985 537.561 -8.29791 538.968C-13.3349 538.632 -18.4809 538.614 -22.3723 534.701L-22.4086 534.747Z" fill="#711011" fill-opacity="0.3"/>
<path d="M186.331 536.937C182.24 538 178.139 539.062 174.048 540.124C173.948 539.761 173.848 539.388 173.757 539.025C177.867 537.936 181.985 536.856 186.095 535.766C186.177 536.157 186.249 536.547 186.331 536.937Z" fill="#711011" fill-opacity="0.3"/>
<path d="M98.2131 657.827C96.3129 663.891 95.4491 664.581 91.5578 663.456C92.1942 659.026 92.9579 658.345 98.2131 657.827Z" fill="#711011" fill-opacity="0.3"/>
<path d="M98.9885 655.145C92.6241 657.496 87.8144 656.57 84.8595 651.841C89.8692 653.012 94.2425 654.038 98.9885 655.145Z" fill="#711011" fill-opacity="0.3"/>
<path d="M68.4648 655.046C72.7108 654.048 76.9658 653.049 81.6482 651.951C79.2115 656.59 73.7018 657.634 68.4648 655.046Z" fill="#711011" fill-opacity="0.3"/>
<path d="M81.221 658.182C83.1576 658.091 85.1033 658.01 87.0399 657.919C87.2035 658.264 87.3763 658.609 87.5399 658.945C85.8761 659.607 84.2305 660.688 82.5485 660.76C81.6393 660.797 80.6664 659.09 79.7118 658.164C80.2209 658.173 80.7209 658.182 81.221 658.182Z" fill="#711011" fill-opacity="0.3"/>
<path d="M19.4134 634.327L18.9679 642.797L8.23938 634.327L4.12982 628.662L8.23938 624.296L15.6584 628.099L19.4134 634.327Z" fill="#711011" fill-opacity="0.3"/>
<path d="M56.6624 658.459L55.444 666.974C43.3063 664.614 31.6958 658.341 25.7497 652.376L18.9672 643.807V642.799L19.3035 636.563L22.213 637.761L30.8412 642.472C36.9237 643.843 46.9521 651.396 56.6624 658.459Z" fill="#711011" fill-opacity="0.3"/>
<path d="M19.2946 636.57L18.9672 642.806V636.434L19.2946 636.57Z" fill="#711011" fill-opacity="0.3"/>
<path d="M55.955 655.989L55.4458 666.965L64.8469 668.036L67.5927 657.16L64.9469 655.054L55.955 655.989Z" fill="#711011" fill-opacity="0.3"/>
<path d="M64.9473 655.063L68.4659 655.054L81.6493 651.959L84.8595 651.841L98.9885 655.145L101.87 655.281L109.171 655.899C109.498 658.159 108.534 661.2 106.334 665.004L67.5931 666.974L59.6104 661.554L64.9473 655.063Z" fill="#711011" fill-opacity="0.3"/>
<path d="M118.455 649.813L102.026 660.861L106.226 666.97L112.173 666.725L125.674 662.232L131.793 657.393L131.975 654.978L143.931 637.866L118.455 649.813Z" fill="#711011" fill-opacity="0.3"/>
<path d="M131.972 654.972L132.863 657.532L141.418 652.412L145.674 646.584L155.666 637.125L164.021 629.599L161.712 622.074L151.492 626.395L143.928 637.86L131.972 654.972Z" fill="#711011" fill-opacity="0.3"/>
</svg>
